<?xml version="1.0" encoding="utf-8"?>
<!-- Generator: Adobe Illustrator 17.1.0, SVG Export Plug-In . SVG Version: 6.00 Build 0)  -->
<!DOCTYPE svg PUBLIC "-//W3C//DTD SVG 1.1//EN" "http://www.w3.org/Graphics/SVG/1.1/DTD/svg11.dtd">
<svg version="1.1" id="Layer_1" xmlns="http://www.w3.org/2000/svg" xmlns:xlink="http://www.w3.org/1999/xlink" x="0px" y="0px"
	 width="36px" height="36px" viewBox="0 0 36 36" enable-background="new 0 0 36 36" xml:space="preserve">
<g opacity="0.8">
	<g>
		<path fill="#25487F" d="M33.6,16.6H30c-0.7-5.5-5.1-9.8-10.6-10.5V2.4C19.4,1.6,18.8,1,18,1c-0.8,0-1.4,0.6-1.4,1.4v3.8
			c-5.6,0.6-10,5-10.7,10.5H2.4C1.6,16.6,1,17.2,1,18c0,0.8,0.6,1.4,1.4,1.4h3.5C6.5,25,11,29.4,16.6,30v3.6c0,0.8,0.6,1.4,1.4,1.4
			c0.8,0,1.4-0.6,1.4-1.4V30c5.6-0.7,10-5.1,10.6-10.6h3.6c0.8,0,1.4-0.6,1.4-1.4S34.4,16.6,33.6,16.6z M19.4,27.2v-4.6
			c0-0.8-0.6-1.4-1.4-1.4c-0.8,0-1.4,0.6-1.4,1.4v4.6c-4.1-0.6-7.3-3.8-7.9-7.8h4.7c0.8,0,1.4-0.6,1.4-1.4s-0.6-1.4-1.4-1.4H8.8
			c0.6-4,3.8-7.1,7.9-7.7v4.4c0,0.8,0.6,1.4,1.4,1.4c0.8,0,1.4-0.6,1.4-1.4V9c4,0.6,7.1,3.7,7.8,7.6h-4.5c-0.8,0-1.4,0.6-1.4,1.4
			s0.6,1.4,1.4,1.4h4.6C26.6,23.4,23.4,26.6,19.4,27.2z"/>
	</g>
</g>
</svg>
