<?xml version="1.0" encoding="utf-8"?>
<!-- Generator: Adobe Illustrator 17.1.0, SVG Export Plug-In . SVG Version: 6.00 Build 0)  -->
<!DOCTYPE svg PUBLIC "-//W3C//DTD SVG 1.1//EN" "http://www.w3.org/Graphics/SVG/1.1/DTD/svg11.dtd">
<svg version="1.1" id="Layer_1" xmlns="http://www.w3.org/2000/svg" xmlns:xlink="http://www.w3.org/1999/xlink" x="0px" y="0px"
	 width="104.5px" height="45px" viewBox="0 0 104.5 45" enable-background="new 0 0 104.5 45" xml:space="preserve">
<g id="USA_3_">
	<g id="USA">
		<g>
			<g>
				<g>
					<defs>
						<circle id="SVGID_1_" cx="27.1" cy="22.2" r="19.7"/>
					</defs>
					<clipPath id="SVGID_2_">
						<use xlink:href="#SVGID_1_"  overflow="visible"/>
					</clipPath>
					<g clip-path="url(#SVGID_2_)">
						<g>
							<polygon fill="#FFFFFF" points="20.5,2.5 33.7,2.5 33.7,16 66.7,15.6 66.7,28.8 33.7,29.2 33.7,42.4 20.5,42.4 20.5,29.2 
								-12.4,28.8 -12.4,15.6 20.5,16 							"/>
							<polygon fill="#FFFFFF" points="-12.4,2.5 -3.6,2.9 66.7,38 66.7,42 57.8,42.4 -12.4,6.9 							"/>
							<g>
								<polygon fill="#FFFFFF" points="66.7,2.5 57.8,2.9 -12.4,38 -12.4,42 -3.6,42.4 66.7,6.9 								"/>
							</g>
						</g>
					</g>
				</g>
				<linearGradient id="SVGID_3_" gradientUnits="userSpaceOnUse" x1="27.1078" y1="25.3116" x2="27.1501" y2="8.8205">
					<stop  offset="0" style="stop-color:#FFFFFF;stop-opacity:0"/>
					<stop  offset="1" style="stop-color:#FFFFFF"/>
				</linearGradient>
				<ellipse opacity="0.5" fill="url(#SVGID_3_)" cx="27.1" cy="14.6" rx="15.4" ry="10.8"/>
				<linearGradient id="SVGID_4_" gradientUnits="userSpaceOnUse" x1="27.415" y1="16.776" x2="27.415" y2="37.078">
					<stop  offset="5.618000e-03" style="stop-color:#DEE2E5"/>
					<stop  offset="0.2528" style="stop-color:#FFFCE4"/>
					<stop  offset="0.3953" style="stop-color:#F0EBD7"/>
					<stop  offset="0.5955" style="stop-color:#D5CCC0"/>
					<stop  offset="0.7865" style="stop-color:#EDEDEE"/>
					<stop  offset="1" style="stop-color:#D7D4BA"/>
				</linearGradient>
				<path fill="url(#SVGID_4_)" d="M5.7,22c0,6.8,3.1,12.9,8,16.8C9.9,34.7,7.5,28.7,7.5,22c0-6.6,2.4-12.6,6.3-16.8
					C8.9,9.2,5.7,15.2,5.7,22z M41.1,5.2c3.9,4.2,6.3,10.2,6.3,16.8c0,6.6-2.4,12.6-6.3,16.8c4.9-4,8-10,8-16.8
					C49.1,15.2,46,9.2,41.1,5.2z"/>
				<path fill="#FFFFFF" d="M27.4,42.2c-11.1,0-20.1-9-20.4-19.6c0,0.1,0,0.3,0,0.4c0,11.2,9.1,20.4,20.4,20.4
					c11.2,0,20.4-9.1,20.4-20.4c0-0.1,0-0.3,0-0.4C47.6,33.2,38.5,42.2,27.4,42.2z"/>
				<g>
				</g>
				<g>
					<defs>
						<circle id="SVGID_5_" cx="27.7" cy="22.2" r="20.4"/>
					</defs>
					<clipPath id="SVGID_6_">
						<use xlink:href="#SVGID_5_"  overflow="visible"/>
					</clipPath>
					<g clip-path="url(#SVGID_6_)">
						<g>
							<defs>
								<rect id="SVGID_7_" x="-3.5" y="1.8" width="70.5" height="41.1"/>
							</defs>
							<clipPath id="SVGID_8_">
								<use xlink:href="#SVGID_7_"  overflow="visible"/>
							</clipPath>
							<rect x="-3.5" y="39.8" clip-path="url(#SVGID_8_)" fill="#CA2027" width="70.5" height="3.2"/>
							<rect x="-3.5" y="36.6" clip-path="url(#SVGID_8_)" fill="#FFFFFF" width="70.5" height="3.2"/>
							<rect x="-3.5" y="33.5" clip-path="url(#SVGID_8_)" fill="#CA2027" width="70.5" height="3.2"/>
							<rect x="-3.5" y="30.3" clip-path="url(#SVGID_8_)" fill="#FFFFFF" width="70.5" height="3.2"/>
							<rect x="-3.5" y="27.2" clip-path="url(#SVGID_8_)" fill="#CA2027" width="70.5" height="3.2"/>
							<rect x="-3.5" y="24" clip-path="url(#SVGID_8_)" fill="#FFFFFF" width="70.5" height="3.2"/>
							<rect x="-3.5" y="20.8" clip-path="url(#SVGID_8_)" fill="#CA2027" width="70.5" height="3.2"/>
							<rect x="-3.5" y="17.7" clip-path="url(#SVGID_8_)" fill="#FFFFFF" width="70.5" height="3.2"/>
							<rect x="-3.5" y="14.5" clip-path="url(#SVGID_8_)" fill="#CA2027" width="70.5" height="3.2"/>
							<rect x="-3.5" y="11.3" clip-path="url(#SVGID_8_)" fill="#FFFFFF" width="70.5" height="3.2"/>
							<rect x="-3.5" y="8.2" clip-path="url(#SVGID_8_)" fill="#CA2027" width="70.5" height="3.2"/>
							<rect x="-3.5" y="5" clip-path="url(#SVGID_8_)" fill="#FFFFFF" width="70.5" height="3.2"/>
							<rect x="-3.5" y="1.8" clip-path="url(#SVGID_8_)" fill="#CA2027" width="70.5" height="3.2"/>
							<rect x="-3.5" y="1.8" clip-path="url(#SVGID_8_)" fill="#2B3561" width="32.2" height="22.2"/>
							<polygon clip-path="url(#SVGID_8_)" fill="#FFFFFF" points="-0.6,4.3 -0.4,5.1 0.5,5.1 -0.2,5.6 0.1,6.5 -0.6,5.9 -1.3,6.5 
								-1.1,5.6 -1.8,5.1 -0.9,5.1 							"/>
							<polygon clip-path="url(#SVGID_8_)" fill="#FFFFFF" points="-0.6,8 -0.4,8.8 0.5,8.8 -0.2,9.3 0.1,10.2 -0.6,9.6 -1.3,10.2 
								-1.1,9.3 -1.8,8.8 -0.9,8.8 							"/>
							<polygon clip-path="url(#SVGID_8_)" fill="#FFFFFF" points="-0.6,11.7 -0.4,12.5 0.5,12.5 -0.2,13 0.1,13.9 -0.6,13.3 
								-1.3,13.9 -1.1,13 -1.8,12.5 -0.9,12.5 							"/>
							<polygon clip-path="url(#SVGID_8_)" fill="#FFFFFF" points="-0.6,15.4 -0.4,16.2 0.5,16.2 -0.2,16.7 0.1,17.6 -0.6,17 
								-1.3,17.6 -1.1,16.7 -1.8,16.2 -0.9,16.2 							"/>
							<polygon clip-path="url(#SVGID_8_)" fill="#FFFFFF" points="-0.6,19.1 -0.4,19.9 0.5,19.9 -0.2,20.4 0.1,21.3 -0.6,20.7 
								-1.3,21.3 -1.1,20.4 -1.8,19.9 -0.9,19.9 							"/>
							<polygon clip-path="url(#SVGID_8_)" fill="#FFFFFF" points="1.9,6.2 2.2,7.1 3.1,7.1 2.4,7.6 2.7,8.4 1.9,7.9 1.2,8.4 
								1.5,7.6 0.8,7.1 1.7,7.1 							"/>
							<polygon clip-path="url(#SVGID_8_)" fill="#FFFFFF" points="1.9,9.9 2.2,10.8 3.1,10.8 2.4,11.3 2.7,12.1 1.9,11.6 1.2,12.1 
								1.5,11.3 0.8,10.8 1.7,10.8 							"/>
							<polygon clip-path="url(#SVGID_8_)" fill="#FFFFFF" points="1.9,13.6 2.2,14.5 3.1,14.5 2.4,15 2.7,15.8 1.9,15.3 1.2,15.8 
								1.5,15 0.8,14.5 1.7,14.5 							"/>
							<polygon clip-path="url(#SVGID_8_)" fill="#FFFFFF" points="1.9,17.3 2.2,18.2 3.1,18.2 2.4,18.7 2.7,19.5 1.9,19 1.2,19.5 
								1.5,18.7 0.8,18.2 1.7,18.2 							"/>
							<polygon clip-path="url(#SVGID_8_)" fill="#FFFFFF" points="4.6,4.3 4.8,5.1 5.7,5.1 5,5.6 5.3,6.5 4.6,5.9 3.8,6.5 4.1,5.6 
								3.4,5.1 4.3,5.1 							"/>
							<polygon clip-path="url(#SVGID_8_)" fill="#FFFFFF" points="4.6,8 4.8,8.8 5.7,8.8 5,9.3 5.3,10.2 4.6,9.6 3.8,10.2 4.1,9.3 
								3.4,8.8 4.3,8.8 							"/>
							<polygon clip-path="url(#SVGID_8_)" fill="#FFFFFF" points="4.6,11.7 4.8,12.5 5.7,12.5 5,13 5.3,13.9 4.6,13.3 3.8,13.9 
								4.1,13 3.4,12.5 4.3,12.5 							"/>
							<polygon clip-path="url(#SVGID_8_)" fill="#FFFFFF" points="4.6,15.4 4.8,16.2 5.7,16.2 5,16.7 5.3,17.6 4.6,17 3.8,17.6 
								4.1,16.7 3.4,16.2 4.3,16.2 							"/>
							<polygon clip-path="url(#SVGID_8_)" fill="#FFFFFF" points="4.6,19.1 4.8,19.9 5.7,19.9 5,20.4 5.3,21.3 4.6,20.7 3.8,21.3 
								4.1,20.4 3.4,19.9 4.3,19.9 							"/>
							<polygon clip-path="url(#SVGID_8_)" fill="#FFFFFF" points="7.1,6.2 7.4,7.1 8.3,7.1 7.6,7.6 7.8,8.4 7.1,7.9 6.4,8.4 
								6.7,7.6 6,7.1 6.9,7.1 							"/>
							<polygon clip-path="url(#SVGID_8_)" fill="#FFFFFF" points="7.1,9.9 7.4,10.8 8.3,10.8 7.6,11.3 7.8,12.1 7.1,11.6 6.4,12.1 
								6.7,11.3 6,10.8 6.9,10.8 							"/>
							<polygon clip-path="url(#SVGID_8_)" fill="#FFFFFF" points="7.1,13.6 7.4,14.5 8.3,14.5 7.6,15 7.8,15.8 7.1,15.3 6.4,15.8 
								6.7,15 6,14.5 6.9,14.5 							"/>
							<polygon clip-path="url(#SVGID_8_)" fill="#FFFFFF" points="7.1,17.3 7.4,18.2 8.3,18.2 7.6,18.7 7.8,19.5 7.1,19 6.4,19.5 
								6.7,18.7 6,18.2 6.9,18.2 							"/>
							<polygon clip-path="url(#SVGID_8_)" fill="#FFFFFF" points="9.7,4.3 10,5.1 10.9,5.1 10.2,5.6 10.5,6.5 9.7,5.9 9,6.5 
								9.3,5.6 8.6,5.1 9.5,5.1 							"/>
							<polygon clip-path="url(#SVGID_8_)" fill="#FFFFFF" points="9.7,8 10,8.8 10.9,8.8 10.2,9.3 10.5,10.2 9.7,9.6 9,10.2 
								9.3,9.3 8.6,8.8 9.5,8.8 							"/>
							<polygon clip-path="url(#SVGID_8_)" fill="#FFFFFF" points="9.7,11.7 10,12.5 10.9,12.5 10.2,13 10.5,13.9 9.7,13.3 9,13.9 
								9.3,13 8.6,12.5 9.5,12.5 							"/>
							<polygon clip-path="url(#SVGID_8_)" fill="#FFFFFF" points="9.7,15.4 10,16.2 10.9,16.2 10.2,16.7 10.5,17.6 9.7,17 9,17.6 
								9.3,16.7 8.6,16.2 9.5,16.2 							"/>
							<polygon clip-path="url(#SVGID_8_)" fill="#FFFFFF" points="9.7,19.1 10,19.9 10.9,19.9 10.2,20.4 10.5,21.3 9.7,20.7 
								9,21.3 9.3,20.4 8.6,19.9 9.5,19.9 							"/>
							<polygon clip-path="url(#SVGID_8_)" fill="#FFFFFF" points="12.3,6.2 12.6,7.1 13.5,7.1 12.8,7.6 13,8.4 12.3,7.9 11.6,8.4 
								11.9,7.6 11.2,7.1 12,7.1 							"/>
							<polygon clip-path="url(#SVGID_8_)" fill="#FFFFFF" points="12.3,9.9 12.6,10.8 13.5,10.8 12.8,11.3 13,12.1 12.3,11.6 
								11.6,12.1 11.9,11.3 11.2,10.8 12,10.8 							"/>
							<polygon clip-path="url(#SVGID_8_)" fill="#FFFFFF" points="12.3,13.6 12.6,14.5 13.5,14.5 12.8,15 13,15.8 12.3,15.3 
								11.6,15.8 11.9,15 11.2,14.5 12,14.5 							"/>
							<polygon clip-path="url(#SVGID_8_)" fill="#FFFFFF" points="12.3,17.3 12.6,18.2 13.5,18.2 12.8,18.7 13,19.5 12.3,19 
								11.6,19.5 11.9,18.7 11.2,18.2 12,18.2 							"/>
							<polygon clip-path="url(#SVGID_8_)" fill="#FFFFFF" points="14.9,4.3 15.2,5.1 16.1,5.1 15.4,5.6 15.6,6.5 14.9,5.9 
								14.2,6.5 14.5,5.6 13.8,5.1 14.7,5.1 							"/>
							<polygon clip-path="url(#SVGID_8_)" fill="#FFFFFF" points="14.9,8 15.2,8.8 16.1,8.8 15.4,9.3 15.6,10.2 14.9,9.6 
								14.2,10.2 14.5,9.3 13.8,8.8 14.7,8.8 							"/>
							<polygon clip-path="url(#SVGID_8_)" fill="#FFFFFF" points="14.9,11.7 15.2,12.5 16.1,12.5 15.4,13 15.6,13.9 14.9,13.3 
								14.2,13.9 14.5,13 13.8,12.5 14.7,12.5 							"/>
							<polygon clip-path="url(#SVGID_8_)" fill="#FFFFFF" points="14.9,15.4 15.2,16.2 16.1,16.2 15.4,16.7 15.6,17.6 14.9,17 
								14.2,17.6 14.5,16.7 13.8,16.2 14.7,16.2 							"/>
							<polygon clip-path="url(#SVGID_8_)" fill="#FFFFFF" points="14.9,19.1 15.2,19.9 16.1,19.9 15.4,20.4 15.6,21.3 14.9,20.7 
								14.2,21.3 14.5,20.4 13.8,19.9 14.7,19.9 							"/>
							<polygon clip-path="url(#SVGID_8_)" fill="#FFFFFF" points="17.5,6.2 17.8,7.1 18.7,7.1 17.9,7.6 18.2,8.4 17.5,7.9 
								16.8,8.4 17.1,7.6 16.3,7.1 17.2,7.1 							"/>
							<polygon clip-path="url(#SVGID_8_)" fill="#FFFFFF" points="17.5,9.9 17.8,10.8 18.7,10.8 17.9,11.3 18.2,12.1 17.5,11.6 
								16.8,12.1 17.1,11.3 16.3,10.8 17.2,10.8 							"/>
							<polygon clip-path="url(#SVGID_8_)" fill="#FFFFFF" points="17.5,13.6 17.8,14.5 18.7,14.5 17.9,15 18.2,15.8 17.5,15.3 
								16.8,15.8 17.1,15 16.3,14.5 17.2,14.5 							"/>
							<polygon clip-path="url(#SVGID_8_)" fill="#FFFFFF" points="17.5,17.3 17.8,18.2 18.7,18.2 17.9,18.7 18.2,19.5 17.5,19 
								16.8,19.5 17.1,18.7 16.3,18.2 17.2,18.2 							"/>
							<polygon clip-path="url(#SVGID_8_)" fill="#FFFFFF" points="20.1,4.3 20.4,5.1 21.3,5.1 20.5,5.6 20.8,6.5 20.1,5.9 
								19.4,6.5 19.7,5.6 19,5.1 19.8,5.1 							"/>
							<polygon clip-path="url(#SVGID_8_)" fill="#FFFFFF" points="20.1,8 20.4,8.8 21.3,8.8 20.5,9.3 20.8,10.2 20.1,9.6 
								19.4,10.2 19.7,9.3 19,8.8 19.8,8.8 							"/>
							<polygon clip-path="url(#SVGID_8_)" fill="#FFFFFF" points="20.1,11.7 20.4,12.5 21.3,12.5 20.5,13 20.8,13.9 20.1,13.3 
								19.4,13.9 19.7,13 19,12.5 19.8,12.5 							"/>
							<polygon clip-path="url(#SVGID_8_)" fill="#FFFFFF" points="20.1,15.4 20.4,16.2 21.3,16.2 20.5,16.7 20.8,17.6 20.1,17 
								19.4,17.6 19.7,16.7 19,16.2 19.8,16.2 							"/>
							<polygon clip-path="url(#SVGID_8_)" fill="#FFFFFF" points="20.1,19.1 20.4,19.9 21.3,19.9 20.5,20.4 20.8,21.3 20.1,20.7 
								19.4,21.3 19.7,20.4 19,19.9 19.8,19.9 							"/>
							<polygon clip-path="url(#SVGID_8_)" fill="#FFFFFF" points="22.7,6.2 23,7.1 23.8,7.1 23.1,7.6 23.4,8.4 22.7,7.9 22,8.4 
								22.2,7.6 21.5,7.1 22.4,7.1 							"/>
							<polygon clip-path="url(#SVGID_8_)" fill="#FFFFFF" points="22.7,9.9 23,10.8 23.8,10.8 23.1,11.3 23.4,12.1 22.7,11.6 
								22,12.1 22.2,11.3 21.5,10.8 22.4,10.8 							"/>
							<polygon clip-path="url(#SVGID_8_)" fill="#FFFFFF" points="22.7,13.6 23,14.5 23.8,14.5 23.1,15 23.4,15.8 22.7,15.3 
								22,15.8 22.2,15 21.5,14.5 22.4,14.5 							"/>
							<polygon clip-path="url(#SVGID_8_)" fill="#FFFFFF" points="22.7,17.3 23,18.2 23.8,18.2 23.1,18.7 23.4,19.5 22.7,19 
								22,19.5 22.2,18.7 21.5,18.2 22.4,18.2 							"/>
							<polygon clip-path="url(#SVGID_8_)" fill="#FFFFFF" points="25.3,4.3 25.6,5.1 26.4,5.1 25.7,5.6 26,6.5 25.3,5.9 24.6,6.5 
								24.9,5.6 24.1,5.1 25,5.1 							"/>
							<polygon clip-path="url(#SVGID_8_)" fill="#FFFFFF" points="25.3,8 25.6,8.8 26.4,8.8 25.7,9.3 26,10.2 25.3,9.6 24.6,10.2 
								24.9,9.3 24.1,8.8 25,8.8 							"/>
							<polygon clip-path="url(#SVGID_8_)" fill="#FFFFFF" points="25.3,11.7 25.6,12.5 26.4,12.5 25.7,13 26,13.9 25.3,13.3 
								24.6,13.9 24.9,13 24.1,12.5 25,12.5 							"/>
							<polygon clip-path="url(#SVGID_8_)" fill="#FFFFFF" points="25.3,15.4 25.6,16.2 26.4,16.2 25.7,16.7 26,17.6 25.3,17 
								24.6,17.6 24.9,16.7 24.1,16.2 25,16.2 							"/>
							<polygon clip-path="url(#SVGID_8_)" fill="#FFFFFF" points="25.3,19.1 25.6,19.9 26.4,19.9 25.7,20.4 26,21.3 25.3,20.7 
								24.6,21.3 24.9,20.4 24.1,19.9 25,19.9 							"/>
						</g>
					</g>
				</g>
				<linearGradient id="SVGID_9_" gradientUnits="userSpaceOnUse" x1="27.8204" y1="23.8901" x2="27.8627" y2="7.399">
					<stop  offset="0" style="stop-color:#FFFFFF;stop-opacity:0"/>
					<stop  offset="1" style="stop-color:#FFFFFF"/>
				</linearGradient>
				<ellipse opacity="0.5" fill="url(#SVGID_9_)" cx="27.8" cy="13.2" rx="15.4" ry="10.8"/>
			</g>
		</g>
	</g>
	<g id="USA_2_">
		<g>
			<g>
				<g>
					<defs>
						<circle id="SVGID_10_" cx="27.3" cy="21.7" r="19.7"/>
					</defs>
					<clipPath id="SVGID_11_">
						<use xlink:href="#SVGID_10_"  overflow="visible"/>
					</clipPath>
					<g clip-path="url(#SVGID_11_)">
						<g>
							<polygon fill="#FFFFFF" points="20.7,2 33.8,2 33.8,15.6 66.8,15.2 66.8,28.3 33.8,28.7 33.8,41.9 20.7,41.9 20.7,28.7 
								-12.3,28.3 -12.3,15.2 20.7,15.6 							"/>
							<polygon fill="#FFFFFF" points="-12.3,2 -3.4,2.4 66.8,37.5 66.8,41.5 57.9,41.9 -12.3,6.4 							"/>
							<g>
								<polygon fill="#FFFFFF" points="66.8,2 57.9,2.4 -12.3,37.5 -12.3,41.5 -3.4,41.9 66.8,6.4 								"/>
							</g>
						</g>
					</g>
				</g>
				<linearGradient id="SVGID_12_" gradientUnits="userSpaceOnUse" x1="27.235" y1="24.8367" x2="27.2773" y2="8.3457">
					<stop  offset="0" style="stop-color:#FFFFFF;stop-opacity:0"/>
					<stop  offset="1" style="stop-color:#FFFFFF"/>
				</linearGradient>
				<ellipse opacity="0.5" fill="url(#SVGID_12_)" cx="27.3" cy="14.2" rx="15.4" ry="10.8"/>
				<linearGradient id="SVGID_13_" gradientUnits="userSpaceOnUse" x1="27.5422" y1="16.3012" x2="27.5422" y2="36.6029">
					<stop  offset="5.618000e-03" style="stop-color:#DEE2E5"/>
					<stop  offset="0.2528" style="stop-color:#FFFCE4"/>
					<stop  offset="0.3953" style="stop-color:#F0EBD7"/>
					<stop  offset="0.5955" style="stop-color:#D5CCC0"/>
					<stop  offset="0.7865" style="stop-color:#EDEDEE"/>
					<stop  offset="1" style="stop-color:#D7D4BA"/>
				</linearGradient>
				<path fill="url(#SVGID_13_)" d="M5.9,21.6c0,6.8,3.1,12.9,8,16.8C10,34.2,7.6,28.2,7.6,21.6c0-6.6,2.4-12.6,6.3-16.8
					C9,8.7,5.9,14.8,5.9,21.6z M41.2,4.7c3.9,4.2,6.3,10.2,6.3,16.8c0,6.6-2.4,12.6-6.3,16.8c4.9-4,8-10,8-16.8
					C49.2,14.8,46.1,8.7,41.2,4.7z"/>
				<path fill="#FFFFFF" d="M27.5,41.7c-11.1,0-20.1-9-20.4-19.6c0,0.1,0,0.3,0,0.4c0,11.2,9.1,20.4,20.4,20.4
					c11.2,0,20.4-9.1,20.4-20.4c0-0.1,0-0.3,0-0.4C47.7,32.7,38.7,41.7,27.5,41.7z"/>
				<g>
				</g>
				<g>
					<defs>
						<circle id="SVGID_14_" cx="27.8" cy="21.7" r="20.4"/>
					</defs>
					<clipPath id="SVGID_15_">
						<use xlink:href="#SVGID_14_"  overflow="visible"/>
					</clipPath>
					<g clip-path="url(#SVGID_15_)">
						<g>
							<defs>
								<rect id="SVGID_16_" x="-3.4" y="1.4" width="70.5" height="41.1"/>
							</defs>
							<clipPath id="SVGID_17_">
								<use xlink:href="#SVGID_16_"  overflow="visible"/>
							</clipPath>
							<rect x="-3.4" y="39.3" clip-path="url(#SVGID_17_)" fill="#CA2027" width="70.5" height="3.2"/>
							<rect x="-3.4" y="36.2" clip-path="url(#SVGID_17_)" fill="#FFFFFF" width="70.5" height="3.2"/>
							<rect x="-3.4" y="33" clip-path="url(#SVGID_17_)" fill="#CA2027" width="70.5" height="3.2"/>
							<rect x="-3.4" y="29.8" clip-path="url(#SVGID_17_)" fill="#FFFFFF" width="70.5" height="3.2"/>
							<rect x="-3.4" y="26.7" clip-path="url(#SVGID_17_)" fill="#CA2027" width="70.5" height="3.2"/>
							<rect x="-3.4" y="23.5" clip-path="url(#SVGID_17_)" fill="#FFFFFF" width="70.5" height="3.2"/>
							<rect x="-3.4" y="20.3" clip-path="url(#SVGID_17_)" fill="#CA2027" width="70.5" height="3.2"/>
							<rect x="-3.4" y="17.2" clip-path="url(#SVGID_17_)" fill="#FFFFFF" width="70.5" height="3.2"/>
							<rect x="-3.4" y="14" clip-path="url(#SVGID_17_)" fill="#CA2027" width="70.5" height="3.2"/>
							<rect x="-3.4" y="10.9" clip-path="url(#SVGID_17_)" fill="#FFFFFF" width="70.5" height="3.2"/>
							<rect x="-3.4" y="7.7" clip-path="url(#SVGID_17_)" fill="#CA2027" width="70.5" height="3.2"/>
							<rect x="-3.4" y="4.5" clip-path="url(#SVGID_17_)" fill="#FFFFFF" width="70.5" height="3.2"/>
							<rect x="-3.4" y="1.4" clip-path="url(#SVGID_17_)" fill="#CA2027" width="70.5" height="3.2"/>
							<rect x="-3.4" y="1.4" clip-path="url(#SVGID_17_)" fill="#2B3561" width="32.2" height="22.2"/>
							<polygon clip-path="url(#SVGID_17_)" fill="#FFFFFF" points="-0.5,3.8 -0.2,4.6 0.7,4.6 -0.1,5.2 0.2,6 -0.5,5.5 -1.2,6 
								-0.9,5.2 -1.7,4.6 -0.8,4.6 							"/>
							<polygon clip-path="url(#SVGID_17_)" fill="#FFFFFF" points="-0.5,7.5 -0.2,8.3 0.7,8.3 -0.1,8.8 0.2,9.7 -0.5,9.2 -1.2,9.7 
								-0.9,8.8 -1.7,8.3 -0.8,8.3 							"/>
							<polygon clip-path="url(#SVGID_17_)" fill="#FFFFFF" points="-0.5,11.2 -0.2,12 0.7,12 -0.1,12.5 0.2,13.4 -0.5,12.9 
								-1.2,13.4 -0.9,12.5 -1.7,12 -0.8,12 							"/>
							<polygon clip-path="url(#SVGID_17_)" fill="#FFFFFF" points="-0.5,14.9 -0.2,15.7 0.7,15.7 -0.1,16.2 0.2,17.1 -0.5,16.6 
								-1.2,17.1 -0.9,16.2 -1.7,15.7 -0.8,15.7 							"/>
							<polygon clip-path="url(#SVGID_17_)" fill="#FFFFFF" points="-0.5,18.6 -0.2,19.4 0.7,19.4 -0.1,19.9 0.2,20.8 -0.5,20.3 
								-1.2,20.8 -0.9,19.9 -1.7,19.4 -0.8,19.4 							"/>
							<polygon clip-path="url(#SVGID_17_)" fill="#FFFFFF" points="2.1,5.7 2.3,6.6 3.2,6.6 2.5,7.1 2.8,7.9 2.1,7.4 1.4,7.9 
								1.6,7.1 0.9,6.6 1.8,6.6 							"/>
							<polygon clip-path="url(#SVGID_17_)" fill="#FFFFFF" points="2.1,9.4 2.3,10.3 3.2,10.3 2.5,10.8 2.8,11.6 2.1,11.1 
								1.4,11.6 1.6,10.8 0.9,10.3 1.8,10.3 							"/>
							<polygon clip-path="url(#SVGID_17_)" fill="#FFFFFF" points="2.1,13.1 2.3,14 3.2,14 2.5,14.5 2.8,15.3 2.1,14.8 1.4,15.3 
								1.6,14.5 0.9,14 1.8,14 							"/>
							<polygon clip-path="url(#SVGID_17_)" fill="#FFFFFF" points="2.1,16.8 2.3,17.7 3.2,17.7 2.5,18.2 2.8,19 2.1,18.5 1.4,19 
								1.6,18.2 0.9,17.7 1.8,17.7 							"/>
							<polygon clip-path="url(#SVGID_17_)" fill="#FFFFFF" points="4.7,3.8 5,4.6 5.8,4.6 5.1,5.2 5.4,6 4.7,5.5 4,6 4.2,5.2 
								3.5,4.6 4.4,4.6 							"/>
							<polygon clip-path="url(#SVGID_17_)" fill="#FFFFFF" points="4.7,7.5 5,8.3 5.8,8.3 5.1,8.8 5.4,9.7 4.7,9.2 4,9.7 4.2,8.8 
								3.5,8.3 4.4,8.3 							"/>
							<polygon clip-path="url(#SVGID_17_)" fill="#FFFFFF" points="4.7,11.2 5,12 5.8,12 5.1,12.5 5.4,13.4 4.7,12.9 4,13.4 
								4.2,12.5 3.5,12 4.4,12 							"/>
							<polygon clip-path="url(#SVGID_17_)" fill="#FFFFFF" points="4.7,14.9 5,15.7 5.8,15.7 5.1,16.2 5.4,17.1 4.7,16.6 4,17.1 
								4.2,16.2 3.5,15.7 4.4,15.7 							"/>
							<polygon clip-path="url(#SVGID_17_)" fill="#FFFFFF" points="4.7,18.6 5,19.4 5.8,19.4 5.1,19.9 5.4,20.8 4.7,20.3 4,20.8 
								4.2,19.9 3.5,19.4 4.4,19.4 							"/>
							<polygon clip-path="url(#SVGID_17_)" fill="#FFFFFF" points="7.3,5.7 7.5,6.6 8.4,6.6 7.7,7.1 8,7.9 7.3,7.4 6.5,7.9 
								6.8,7.1 6.1,6.6 7,6.6 							"/>
							<polygon clip-path="url(#SVGID_17_)" fill="#FFFFFF" points="7.3,9.4 7.5,10.3 8.4,10.3 7.7,10.8 8,11.6 7.3,11.1 6.5,11.6 
								6.8,10.8 6.1,10.3 7,10.3 							"/>
							<polygon clip-path="url(#SVGID_17_)" fill="#FFFFFF" points="7.3,13.1 7.5,14 8.4,14 7.7,14.5 8,15.3 7.3,14.8 6.5,15.3 
								6.8,14.5 6.1,14 7,14 							"/>
							<polygon clip-path="url(#SVGID_17_)" fill="#FFFFFF" points="7.3,16.8 7.5,17.7 8.4,17.7 7.7,18.2 8,19 7.3,18.5 6.5,19 
								6.8,18.2 6.1,17.7 7,17.7 							"/>
							<polygon clip-path="url(#SVGID_17_)" fill="#FFFFFF" points="9.9,3.8 10.1,4.6 11,4.6 10.3,5.2 10.6,6 9.9,5.5 9.2,6 
								9.4,5.2 8.7,4.6 9.6,4.6 							"/>
							<polygon clip-path="url(#SVGID_17_)" fill="#FFFFFF" points="9.9,7.5 10.1,8.3 11,8.3 10.3,8.8 10.6,9.7 9.9,9.2 9.2,9.7 
								9.4,8.8 8.7,8.3 9.6,8.3 							"/>
							<polygon clip-path="url(#SVGID_17_)" fill="#FFFFFF" points="9.9,11.2 10.1,12 11,12 10.3,12.5 10.6,13.4 9.9,12.9 9.2,13.4 
								9.4,12.5 8.7,12 9.6,12 							"/>
							<polygon clip-path="url(#SVGID_17_)" fill="#FFFFFF" points="9.9,14.9 10.1,15.7 11,15.7 10.3,16.2 10.6,17.1 9.9,16.6 
								9.2,17.1 9.4,16.2 8.7,15.7 9.6,15.7 							"/>
							<polygon clip-path="url(#SVGID_17_)" fill="#FFFFFF" points="9.9,18.6 10.1,19.4 11,19.4 10.3,19.9 10.6,20.8 9.9,20.3 
								9.2,20.8 9.4,19.9 8.7,19.4 9.6,19.4 							"/>
							<polygon clip-path="url(#SVGID_17_)" fill="#FFFFFF" points="12.4,5.7 12.7,6.6 13.6,6.6 12.9,7.1 13.2,7.9 12.4,7.4 
								11.7,7.9 12,7.1 11.3,6.6 12.2,6.6 							"/>
							<polygon clip-path="url(#SVGID_17_)" fill="#FFFFFF" points="12.4,9.4 12.7,10.3 13.6,10.3 12.9,10.8 13.2,11.6 12.4,11.1 
								11.7,11.6 12,10.8 11.3,10.3 12.2,10.3 							"/>
							<polygon clip-path="url(#SVGID_17_)" fill="#FFFFFF" points="12.4,13.1 12.7,14 13.6,14 12.9,14.5 13.2,15.3 12.4,14.8 
								11.7,15.3 12,14.5 11.3,14 12.2,14 							"/>
							<polygon clip-path="url(#SVGID_17_)" fill="#FFFFFF" points="12.4,16.8 12.7,17.7 13.6,17.7 12.9,18.2 13.2,19 12.4,18.5 
								11.7,19 12,18.2 11.3,17.7 12.2,17.7 							"/>
							<polygon clip-path="url(#SVGID_17_)" fill="#FFFFFF" points="15.1,3.8 15.3,4.6 16.2,4.6 15.5,5.2 15.8,6 15.1,5.5 14.3,6 
								14.6,5.2 13.9,4.6 14.8,4.6 							"/>
							<polygon clip-path="url(#SVGID_17_)" fill="#FFFFFF" points="15.1,7.5 15.3,8.3 16.2,8.3 15.5,8.8 15.8,9.7 15.1,9.2 
								14.3,9.7 14.6,8.8 13.9,8.3 14.8,8.3 							"/>
							<polygon clip-path="url(#SVGID_17_)" fill="#FFFFFF" points="15.1,11.2 15.3,12 16.2,12 15.5,12.5 15.8,13.4 15.1,12.9 
								14.3,13.4 14.6,12.5 13.9,12 14.8,12 							"/>
							<polygon clip-path="url(#SVGID_17_)" fill="#FFFFFF" points="15.1,14.9 15.3,15.7 16.2,15.7 15.5,16.2 15.8,17.1 15.1,16.6 
								14.3,17.1 14.6,16.2 13.9,15.7 14.8,15.7 							"/>
							<polygon clip-path="url(#SVGID_17_)" fill="#FFFFFF" points="15.1,18.6 15.3,19.4 16.2,19.4 15.5,19.9 15.8,20.8 15.1,20.3 
								14.3,20.8 14.6,19.9 13.9,19.4 14.8,19.4 							"/>
							<polygon clip-path="url(#SVGID_17_)" fill="#FFFFFF" points="17.6,5.7 17.9,6.6 18.8,6.6 18.1,7.1 18.3,7.9 17.6,7.4 
								16.9,7.9 17.2,7.1 16.5,6.6 17.4,6.6 							"/>
							<polygon clip-path="url(#SVGID_17_)" fill="#FFFFFF" points="17.6,9.4 17.9,10.3 18.8,10.3 18.1,10.8 18.3,11.6 17.6,11.1 
								16.9,11.6 17.2,10.8 16.5,10.3 17.4,10.3 							"/>
							<polygon clip-path="url(#SVGID_17_)" fill="#FFFFFF" points="17.6,13.1 17.9,14 18.8,14 18.1,14.5 18.3,15.3 17.6,14.8 
								16.9,15.3 17.2,14.5 16.5,14 17.4,14 							"/>
							<polygon clip-path="url(#SVGID_17_)" fill="#FFFFFF" points="17.6,16.8 17.9,17.7 18.8,17.7 18.1,18.2 18.3,19 17.6,18.5 
								16.9,19 17.2,18.2 16.5,17.7 17.4,17.7 							"/>
							<polygon clip-path="url(#SVGID_17_)" fill="#FFFFFF" points="20.2,3.8 20.5,4.6 21.4,4.6 20.7,5.2 20.9,6 20.2,5.5 19.5,6 
								19.8,5.2 19.1,4.6 20,4.6 							"/>
							<polygon clip-path="url(#SVGID_17_)" fill="#FFFFFF" points="20.2,7.5 20.5,8.3 21.4,8.3 20.7,8.8 20.9,9.7 20.2,9.2 
								19.5,9.7 19.8,8.8 19.1,8.3 20,8.3 							"/>
							<polygon clip-path="url(#SVGID_17_)" fill="#FFFFFF" points="20.2,11.2 20.5,12 21.4,12 20.7,12.5 20.9,13.4 20.2,12.9 
								19.5,13.4 19.8,12.5 19.1,12 20,12 							"/>
							<polygon clip-path="url(#SVGID_17_)" fill="#FFFFFF" points="20.2,14.9 20.5,15.7 21.4,15.7 20.7,16.2 20.9,17.1 20.2,16.6 
								19.5,17.1 19.8,16.2 19.1,15.7 20,15.7 							"/>
							<polygon clip-path="url(#SVGID_17_)" fill="#FFFFFF" points="20.2,18.6 20.5,19.4 21.4,19.4 20.7,19.9 20.9,20.8 20.2,20.3 
								19.5,20.8 19.8,19.9 19.1,19.4 20,19.4 							"/>
							<polygon clip-path="url(#SVGID_17_)" fill="#FFFFFF" points="22.8,5.7 23.1,6.6 24,6.6 23.3,7.1 23.5,7.9 22.8,7.4 22.1,7.9 
								22.4,7.1 21.7,6.6 22.5,6.6 							"/>
							<polygon clip-path="url(#SVGID_17_)" fill="#FFFFFF" points="22.8,9.4 23.1,10.3 24,10.3 23.3,10.8 23.5,11.6 22.8,11.1 
								22.1,11.6 22.4,10.8 21.7,10.3 22.5,10.3 							"/>
							<polygon clip-path="url(#SVGID_17_)" fill="#FFFFFF" points="22.8,13.1 23.1,14 24,14 23.3,14.5 23.5,15.3 22.8,14.8 
								22.1,15.3 22.4,14.5 21.7,14 22.5,14 							"/>
							<polygon clip-path="url(#SVGID_17_)" fill="#FFFFFF" points="22.8,16.8 23.1,17.7 24,17.7 23.3,18.2 23.5,19 22.8,18.5 
								22.1,19 22.4,18.2 21.7,17.7 22.5,17.7 							"/>
							<polygon clip-path="url(#SVGID_17_)" fill="#FFFFFF" points="25.4,3.8 25.7,4.6 26.6,4.6 25.9,5.2 26.1,6 25.4,5.5 24.7,6 
								25,5.2 24.3,4.6 25.1,4.6 							"/>
							<polygon clip-path="url(#SVGID_17_)" fill="#FFFFFF" points="25.4,7.5 25.7,8.3 26.6,8.3 25.9,8.8 26.1,9.7 25.4,9.2 
								24.7,9.7 25,8.8 24.3,8.3 25.1,8.3 							"/>
							<polygon clip-path="url(#SVGID_17_)" fill="#FFFFFF" points="25.4,11.2 25.7,12 26.6,12 25.9,12.5 26.1,13.4 25.4,12.9 
								24.7,13.4 25,12.5 24.3,12 25.1,12 							"/>
							<polygon clip-path="url(#SVGID_17_)" fill="#FFFFFF" points="25.4,14.9 25.7,15.7 26.6,15.7 25.9,16.2 26.1,17.1 25.4,16.6 
								24.7,17.1 25,16.2 24.3,15.7 25.1,15.7 							"/>
							<polygon clip-path="url(#SVGID_17_)" fill="#FFFFFF" points="25.4,18.6 25.7,19.4 26.6,19.4 25.9,19.9 26.1,20.8 25.4,20.3 
								24.7,20.8 25,19.9 24.3,19.4 25.1,19.4 							"/>
						</g>
					</g>
				</g>
				<linearGradient id="SVGID_18_" gradientUnits="userSpaceOnUse" x1="27.9473" y1="23.4154" x2="27.9896" y2="6.9241">
					<stop  offset="0" style="stop-color:#FFFFFF;stop-opacity:0"/>
					<stop  offset="1" style="stop-color:#FFFFFF"/>
				</linearGradient>
				<ellipse opacity="0.5" fill="url(#SVGID_18_)" cx="28" cy="12.8" rx="15.4" ry="10.8"/>
			</g>
		</g>
	</g>
</g>
<g id="Germany">
	<g>
		<g>
			<g>
				<g>
					<defs>
						<circle id="SVGID_19_" cx="78.3" cy="21.7" r="19.7"/>
					</defs>
					<clipPath id="SVGID_20_">
						<use xlink:href="#SVGID_19_"  overflow="visible"/>
					</clipPath>
					<g clip-path="url(#SVGID_20_)">
						<g>
							<polygon fill="#FFFFFF" points="71.8,2 84.9,2 84.9,15.6 117.9,15.2 117.9,28.3 84.9,28.7 84.9,41.9 71.8,41.9 71.8,28.7 
								38.8,28.3 38.8,15.2 71.8,15.6 							"/>
							<polygon fill="#FFFFFF" points="38.8,2 47.7,2.4 117.9,37.5 117.9,41.5 109,41.9 38.8,6.4 							"/>
							<g>
								<polygon fill="#FFFFFF" points="117.9,2 109,2.4 38.8,37.5 38.8,41.5 47.7,41.9 117.9,6.4 								"/>
							</g>
						</g>
					</g>
				</g>
				<linearGradient id="SVGID_21_" gradientUnits="userSpaceOnUse" x1="78.3133" y1="24.8372" x2="78.3556" y2="8.3465">
					<stop  offset="0" style="stop-color:#FFFFFF;stop-opacity:0"/>
					<stop  offset="1" style="stop-color:#FFFFFF"/>
				</linearGradient>
				<ellipse opacity="0.5" fill="url(#SVGID_21_)" cx="78.3" cy="14.2" rx="15.4" ry="10.8"/>
				<linearGradient id="SVGID_22_" gradientUnits="userSpaceOnUse" x1="78.6195" y1="16.3019" x2="78.6195" y2="36.6036">
					<stop  offset="5.618000e-03" style="stop-color:#DEE2E5"/>
					<stop  offset="0.2528" style="stop-color:#FFFCE4"/>
					<stop  offset="0.3953" style="stop-color:#F0EBD7"/>
					<stop  offset="0.5955" style="stop-color:#D5CCC0"/>
					<stop  offset="0.7865" style="stop-color:#EDEDEE"/>
					<stop  offset="1" style="stop-color:#D7D4BA"/>
				</linearGradient>
				<path fill="url(#SVGID_22_)" d="M56.9,21.6c0,6.8,3.1,12.9,8,16.8c-3.9-4.2-6.3-10.2-6.3-16.8c0-6.6,2.4-12.6,6.3-16.8
					C60.1,8.7,56.9,14.8,56.9,21.6z M92.3,4.7c3.9,4.2,6.3,10.2,6.3,16.8c0,6.6-2.4,12.6-6.3,16.8c4.9-4,8-10,8-16.8
					C100.3,14.8,97.2,8.7,92.3,4.7z"/>
				<path fill="#FFFFFF" d="M78.6,41.7c-11.1,0-20.1-9-20.4-19.6c0,0.1,0,0.3,0,0.4c0,11.2,9.1,20.4,20.4,20.4
					c11.2,0,20.4-9.1,20.4-20.4c0-0.1,0-0.3,0-0.4C98.8,32.7,89.7,41.7,78.6,41.7z"/>
				<g>
				</g>
				<g>
					<defs>
						<circle id="SVGID_23_" cx="78.9" cy="21.7" r="20.4"/>
					</defs>
					<clipPath id="SVGID_24_">
						<use xlink:href="#SVGID_23_"  overflow="visible"/>
					</clipPath>
					<g clip-path="url(#SVGID_24_)">
						<g>
							<defs>
								<rect id="SVGID_25_" x="43.2" y="0" width="71.6" height="41.8"/>
							</defs>
							<clipPath id="SVGID_26_">
								<use xlink:href="#SVGID_25_"  overflow="visible"/>
							</clipPath>
							<rect x="43.2" y="0" clip-path="url(#SVGID_26_)" width="71.6" height="13.9"/>
							<rect x="43.2" y="13.9" clip-path="url(#SVGID_26_)" fill="#DF1E26" width="71.6" height="13.9"/>
							<rect x="43.2" y="27.9" clip-path="url(#SVGID_26_)" fill="#F6D927" width="71.6" height="13.9"/>
							<g clip-path="url(#SVGID_26_)">
								<defs>
									<rect id="SVGID_27_" x="43.2" y="0" width="71.6" height="41.8"/>
								</defs>
								<clipPath id="SVGID_28_">
									<use xlink:href="#SVGID_27_"  overflow="visible"/>
								</clipPath>
							</g>
						</g>
					</g>
				</g>
				<linearGradient id="SVGID_29_" gradientUnits="userSpaceOnUse" x1="79.0251" y1="23.4161" x2="79.0674" y2="6.9252">
					<stop  offset="0" style="stop-color:#FFFFFF;stop-opacity:0"/>
					<stop  offset="1" style="stop-color:#FFFFFF"/>
				</linearGradient>
				<ellipse opacity="0.5" fill="url(#SVGID_29_)" cx="79.1" cy="12.8" rx="15.4" ry="10.8"/>
			</g>
		</g>
	</g>
	<g>
		<g>
			<g>
				<g>
					<defs>
						<circle id="SVGID_30_" cx="77.8" cy="22.2" r="19.7"/>
					</defs>
					<clipPath id="SVGID_31_">
						<use xlink:href="#SVGID_30_"  overflow="visible"/>
					</clipPath>
					<g clip-path="url(#SVGID_31_)">
						<g>
							<polygon fill="#FFFFFF" points="71.2,2.4 84.4,2.4 84.4,16 117.3,15.6 117.3,28.8 84.4,29.2 84.4,42.3 71.2,42.3 71.2,29.2 
								38.3,28.8 38.3,15.6 71.2,16 							"/>
							<polygon fill="#FFFFFF" points="38.3,2.4 47.1,2.8 117.3,37.9 117.3,41.9 108.5,42.3 38.3,6.8 							"/>
							<g>
								<polygon fill="#FFFFFF" points="117.3,2.4 108.5,2.8 38.3,37.9 38.3,41.9 47.1,42.3 117.3,6.8 								"/>
							</g>
						</g>
					</g>
				</g>
				<linearGradient id="SVGID_32_" gradientUnits="userSpaceOnUse" x1="77.7558" y1="25.2688" x2="77.7981" y2="8.778">
					<stop  offset="0" style="stop-color:#FFFFFF;stop-opacity:0"/>
					<stop  offset="1" style="stop-color:#FFFFFF"/>
				</linearGradient>
				<ellipse opacity="0.5" fill="url(#SVGID_32_)" cx="77.8" cy="14.6" rx="15.4" ry="10.8"/>
				<linearGradient id="SVGID_33_" gradientUnits="userSpaceOnUse" x1="78.0619" y1="16.7336" x2="78.0619" y2="37.0352">
					<stop  offset="5.618000e-03" style="stop-color:#DEE2E5"/>
					<stop  offset="0.2528" style="stop-color:#FFFCE4"/>
					<stop  offset="0.3953" style="stop-color:#F0EBD7"/>
					<stop  offset="0.5955" style="stop-color:#D5CCC0"/>
					<stop  offset="0.7865" style="stop-color:#EDEDEE"/>
					<stop  offset="1" style="stop-color:#D7D4BA"/>
				</linearGradient>
				<path fill="url(#SVGID_33_)" d="M56.4,22c0,6.8,3.1,12.9,8,16.8c-3.9-4.2-6.3-10.2-6.3-16.8c0-6.6,2.4-12.6,6.3-16.8
					C59.5,9.1,56.4,15.2,56.4,22z M91.7,5.2C95.6,9.4,98,15.4,98,22c0,6.6-2.4,12.6-6.3,16.8c4.9-4,8-10,8-16.8
					C99.8,15.2,96.6,9.1,91.7,5.2z"/>
				<path fill="#FFFFFF" d="M78.1,42.1c-11.1,0-20.1-9-20.4-19.6c0,0.1,0,0.3,0,0.4c0,11.2,9.1,20.4,20.4,20.4
					c11.2,0,20.4-9.1,20.4-20.4c0-0.1,0-0.3,0-0.4C98.2,33.2,89.2,42.1,78.1,42.1z"/>
				<g>
				</g>
				<g>
					<defs>
						<circle id="SVGID_34_" cx="78.3" cy="22.2" r="20.4"/>
					</defs>
					<clipPath id="SVGID_35_">
						<use xlink:href="#SVGID_34_"  overflow="visible"/>
					</clipPath>
					<g clip-path="url(#SVGID_35_)">
						<g>
							<defs>
								<rect id="SVGID_36_" x="42.7" y="0.4" width="71.6" height="41.8"/>
							</defs>
							<clipPath id="SVGID_37_">
								<use xlink:href="#SVGID_36_"  overflow="visible"/>
							</clipPath>
							<rect x="42.7" y="0.4" clip-path="url(#SVGID_37_)" width="71.6" height="13.9"/>
							<rect x="42.7" y="14.4" clip-path="url(#SVGID_37_)" fill="#DF1E26" width="71.6" height="13.9"/>
							<rect x="42.7" y="28.3" clip-path="url(#SVGID_37_)" fill="#F6D927" width="71.6" height="13.9"/>
							<g clip-path="url(#SVGID_37_)">
								<defs>
									<rect id="SVGID_38_" x="42.7" y="0.4" width="71.6" height="41.8"/>
								</defs>
								<clipPath id="SVGID_39_">
									<use xlink:href="#SVGID_38_"  overflow="visible"/>
								</clipPath>
							</g>
						</g>
					</g>
				</g>
				<linearGradient id="SVGID_40_" gradientUnits="userSpaceOnUse" x1="78.4676" y1="23.8479" x2="78.5099" y2="7.357">
					<stop  offset="0" style="stop-color:#FFFFFF;stop-opacity:0"/>
					<stop  offset="1" style="stop-color:#FFFFFF"/>
				</linearGradient>
				<ellipse opacity="0.3" fill="url(#SVGID_40_)" cx="78.5" cy="13.2" rx="15.4" ry="10.8"/>
			</g>
		</g>
	</g>
</g>
</svg>
