<?xml version="1.0" encoding="utf-8"?>
<!-- Generator: Adobe Illustrator 19.0.0, SVG Export Plug-In . SVG Version: 6.00 Build 0)  -->
<svg version="1.1" id="Layer_1" xmlns="http://www.w3.org/2000/svg" xmlns:xlink="http://www.w3.org/1999/xlink" x="0px" y="0px"
	 viewBox="-273 365 64 64" style="enable-background:new -273 365 64 64;" xml:space="preserve">
<style type="text/css">
	.st0{fill:#FFFFFF;}
</style>
<g>
	<g>
		<path class="st0" d="M-241,398.3l28.7-13.9l-28.6-13.8l-0.1,0l-28.7,13.9L-241,398.3L-241,398.3z M-240.1,372.8l20.3,9.8
			c1.5,0.7,1.5,2.9,0,3.6l-20.3,9.8c-0.6,0.3-1.2,0.3-1.7,0l-20.3-9.8c-1.5-0.7-1.5-2.9,0-3.6l20.3-9.8
			C-241.3,372.5-240.7,372.5-240.1,372.8z"/>
		<path class="st0" d="M-241,370.5l-28.7,13.9l28.6,13.8l0.1,0l28.7-13.9L-241,370.5L-241,370.5L-241,370.5z M-241,396.2
			c-0.3,0-0.6-0.1-0.9-0.2l-20.3-9.8c-1.5-0.7-1.5-2.9,0-3.6l20.3-9.8c0.3-0.1,0.6-0.2,0.9-0.2s0.6,0.1,0.9,0.2l20.3,9.8
			c1.5,0.7,1.5,2.9,0,3.6l-20.3,9.8C-240.4,396.1-240.7,396.2-241,396.2L-241,396.2z"/>
	</g>
	<g>
		<path class="st0" d="M-224.4,405.6l6.8,3.3c0.6,0.3,0.6,1.2,0,1.5l-23,11.1c-0.2,0.1-0.5,0.1-0.7,0l-23-11.1
			c-0.6-0.3-0.6-1.2,0-1.5l6.8-3.3c0.5-0.2,0.6-0.8,0.3-1.3l0,0c-0.2-0.3-0.7-0.4-1-0.2l-9.8,4.8c-0.6,0.3-0.6,1.2,0,1.5l27.1,13.1
			l0.1,0l27.1-13.1c0.6-0.3,0.6-1.2,0-1.5l-9.8-4.8c-0.3-0.2-0.8-0.1-1,0.2l0,0C-225,404.8-224.9,405.4-224.4,405.6z"/>
		<path class="st0" d="M-257.9,404c-0.1,0-0.2,0-0.4,0.1l-9.8,4.8c-0.6,0.3-0.6,1.2,0,1.5l27.1,13.1l0.1,0l27.1-13.1
			c0.6-0.3,0.6-1.2,0-1.5l-9.8-4.8c-0.1-0.1-0.2-0.1-0.4-0.1c-0.2,0-0.5,0.1-0.7,0.3l0,0c-0.3,0.4-0.2,1,0.3,1.3l6.8,3.3
			c0.6,0.3,0.6,1.2,0,1.5l-23,11.1c-0.1,0.1-0.2,0.1-0.4,0.1c-0.1,0-0.2,0-0.4-0.1l-23-11.1c-0.6-0.3-0.6-1.2,0-1.5l6.8-3.3
			c0.5-0.2,0.6-0.8,0.3-1.3C-257.4,404.1-257.7,404-257.9,404L-257.9,404z"/>
	</g>
	<g>
		<path class="st0" d="M-224.4,393.2l6.7,3.3c0.6,0.3,0.6,1.2,0,1.5l-23,11.1c-0.2,0.1-0.5,0.1-0.7,0l-23-11.1
			c-0.6-0.3-0.6-1.2,0-1.5l6.8-3.3c0.5-0.2,0.6-0.8,0.3-1.3l0,0c-0.2-0.3-0.7-0.4-1-0.2l-9.8,4.8c-0.6,0.3-0.6,1.2,0,1.5l27,13.1
			l0.1,0l27.1-13.1c0.6-0.3,0.6-1.2,0-1.5l-9.8-4.8c-0.4-0.2-0.8-0.1-1,0.2l0,0C-225,392.3-224.9,392.9-224.4,393.2z"/>
		<path class="st0" d="M-257.9,391.6c-0.1,0-0.2,0-0.4,0.1l-9.8,4.8c-0.6,0.3-0.6,1.2,0,1.5l27,13.1l0.1,0l27.1-13.1
			c0.6-0.3,0.6-1.2,0-1.5l-9.8-4.8c-0.1-0.1-0.2-0.1-0.4-0.1c-0.2,0-0.5,0.1-0.7,0.3l0,0c-0.3,0.4-0.2,1,0.3,1.3l6.7,3.3
			c0.6,0.3,0.6,1.2,0,1.5l-23,11.1c-0.1,0.1-0.2,0.1-0.4,0.1c-0.1,0-0.2,0-0.4-0.1l-23-11.1c-0.6-0.3-0.6-1.2,0-1.5l6.8-3.3
			c0.5-0.2,0.6-0.8,0.3-1.3C-257.4,391.7-257.7,391.6-257.9,391.6L-257.9,391.6z"/>
	</g>
</g>
</svg>
