<?xml version="1.0" encoding="utf-8"?>
<!-- Generator: Adobe Illustrator 17.1.0, SVG Export Plug-In . SVG Version: 6.00 Build 0)  -->
<!DOCTYPE svg PUBLIC "-//W3C//DTD SVG 1.1//EN" "http://www.w3.org/Graphics/SVG/1.1/DTD/svg11.dtd">
<svg version="1.1" id="Layer_1" xmlns="http://www.w3.org/2000/svg" xmlns:xlink="http://www.w3.org/1999/xlink" x="0px" y="0px"
	 width="104.5px" height="45px" viewBox="0 0 104.5 45" enable-background="new 0 0 104.5 45" xml:space="preserve">
<g id="USA_1_">
	<g id="USA_5_">
		<g>
			<g>
				<linearGradient id="SVGID_1_" gradientUnits="userSpaceOnUse" x1="27.415" y1="16.276" x2="27.415" y2="36.578">
					<stop  offset="5.618000e-03" style="stop-color:#DEE2E5"/>
					<stop  offset="0.2528" style="stop-color:#FFFCE4"/>
					<stop  offset="0.3953" style="stop-color:#F0EBD7"/>
					<stop  offset="0.5955" style="stop-color:#D5CCC0"/>
					<stop  offset="0.7865" style="stop-color:#EDEDEE"/>
					<stop  offset="1" style="stop-color:#D7D4BA"/>
				</linearGradient>
				<path fill="url(#SVGID_1_)" d="M5.7,21.5c0,6.8,3.1,12.9,8,16.8c-3.9-4.2-6.3-10.2-6.3-16.8c0-6.6,2.4-12.6,6.3-16.8
					C8.9,8.7,5.7,14.7,5.7,21.5z M41.1,4.7c3.9,4.2,6.3,10.2,6.3,16.8c0,6.6-2.4,12.6-6.3,16.8c4.9-4,8-10,8-16.8
					C49.1,14.7,46,8.7,41.1,4.7z"/>
				<path fill="#FFFFFF" d="M27.4,41.7c-11.1,0-20.1-9-20.4-19.6c0,0.1,0,0.3,0,0.4c0,11.2,9.1,20.4,20.4,20.4
					c11.2,0,20.4-9.1,20.4-20.4c0-0.1,0-0.3,0-0.4C47.6,32.7,38.5,41.7,27.4,41.7z"/>
			</g>
		</g>
	</g>
	<g id="USA_4_">
		<g>
			<g>
				<linearGradient id="SVGID_2_" gradientUnits="userSpaceOnUse" x1="27.5422" y1="15.8012" x2="27.5422" y2="36.1029">
					<stop  offset="5.618000e-03" style="stop-color:#DEE2E5"/>
					<stop  offset="0.2528" style="stop-color:#FFFCE4"/>
					<stop  offset="0.3953" style="stop-color:#F0EBD7"/>
					<stop  offset="0.5955" style="stop-color:#D5CCC0"/>
					<stop  offset="0.7865" style="stop-color:#EDEDEE"/>
					<stop  offset="1" style="stop-color:#D7D4BA"/>
				</linearGradient>
				<path fill="url(#SVGID_2_)" d="M5.9,21.1c0,6.8,3.1,12.9,8,16.8C10,33.7,7.6,27.7,7.6,21.1c0-6.6,2.4-12.6,6.3-16.8
					C9,8.2,5.9,14.3,5.9,21.1z M41.2,4.2c3.9,4.2,6.3,10.2,6.3,16.8c0,6.6-2.4,12.6-6.3,16.8c4.9-4,8-10,8-16.8
					C49.2,14.3,46.1,8.2,41.2,4.2z"/>
				<path fill="#FFFFFF" d="M27.5,41.2c-11.1,0-20.1-9-20.4-19.6c0,0.1,0,0.3,0,0.4c0,11.2,9.1,20.4,20.4,20.4
					c11.2,0,20.4-9.1,20.4-20.4c0-0.1,0-0.3,0-0.4C47.7,32.2,38.7,41.2,27.5,41.2z"/>
			</g>
		</g>
	</g>
</g>
<g id="Germany_1_">
	<g>
		<g>
			<g>
				<linearGradient id="SVGID_3_" gradientUnits="userSpaceOnUse" x1="78.6195" y1="15.8019" x2="78.6195" y2="36.1036">
					<stop  offset="5.618000e-03" style="stop-color:#DEE2E5"/>
					<stop  offset="0.2528" style="stop-color:#FFFCE4"/>
					<stop  offset="0.3953" style="stop-color:#F0EBD7"/>
					<stop  offset="0.5955" style="stop-color:#D5CCC0"/>
					<stop  offset="0.7865" style="stop-color:#EDEDEE"/>
					<stop  offset="1" style="stop-color:#D7D4BA"/>
				</linearGradient>
				<path fill="url(#SVGID_3_)" d="M56.9,21.1c0,6.8,3.1,12.9,8,16.8c-3.9-4.2-6.3-10.2-6.3-16.8c0-6.6,2.4-12.6,6.3-16.8
					C60.1,8.2,56.9,14.3,56.9,21.1z M92.3,4.2c3.9,4.2,6.3,10.2,6.3,16.8c0,6.6-2.4,12.6-6.3,16.8c4.9-4,8-10,8-16.8
					C100.3,14.3,97.2,8.2,92.3,4.2z"/>
				<path fill="#FFFFFF" d="M78.6,41.2c-11.1,0-20.1-9-20.4-19.6c0,0.1,0,0.3,0,0.4c0,11.2,9.1,20.4,20.4,20.4
					C89.9,42.4,99,33.3,99,22c0-0.1,0-0.3,0-0.4C98.8,32.2,89.7,41.2,78.6,41.2z"/>
			</g>
		</g>
	</g>
	<g>
		<g>
			<g>
				<linearGradient id="SVGID_4_" gradientUnits="userSpaceOnUse" x1="78.0619" y1="16.2336" x2="78.0619" y2="36.5352">
					<stop  offset="5.618000e-03" style="stop-color:#DEE2E5"/>
					<stop  offset="0.2528" style="stop-color:#FFFCE4"/>
					<stop  offset="0.3953" style="stop-color:#F0EBD7"/>
					<stop  offset="0.5955" style="stop-color:#D5CCC0"/>
					<stop  offset="0.7865" style="stop-color:#EDEDEE"/>
					<stop  offset="1" style="stop-color:#D7D4BA"/>
				</linearGradient>
				<path fill="url(#SVGID_4_)" d="M56.4,21.5c0,6.8,3.1,12.9,8,16.8c-3.9-4.2-6.3-10.2-6.3-16.8c0-6.6,2.4-12.6,6.3-16.8
					C59.5,8.6,56.4,14.7,56.4,21.5z M91.7,4.7C95.6,8.9,98,14.9,98,21.5c0,6.6-2.4,12.6-6.3,16.8c4.9-4,8-10,8-16.8
					C99.8,14.7,96.6,8.6,91.7,4.7z"/>
				<path fill="#FFFFFF" d="M78.1,41.6c-11.1,0-20.1-9-20.4-19.6c0,0.1,0,0.3,0,0.4c0,11.2,9.1,20.4,20.4,20.4
					c11.2,0,20.4-9.1,20.4-20.4c0-0.1,0-0.3,0-0.4C98.2,32.7,89.2,41.6,78.1,41.6z"/>
			</g>
		</g>
	</g>
</g>
<text transform="matrix(1 0 0 1 19 28)" fill="#FFFFFF" font-family="'OpenSans-Semibold'" font-size="18">ft.</text>
<text transform="matrix(1 0 0 1 70 28)" fill="#FFFFFF" font-family="'OpenSans-Semibold'" font-size="18">m</text>
</svg>
