<?xml version="1.0" encoding="utf-8"?>
<!-- Generator: Adobe Illustrator 17.1.0, SVG Export Plug-In . SVG Version: 6.00 Build 0)  -->
<!DOCTYPE svg PUBLIC "-//W3C//DTD SVG 1.1//EN" "http://www.w3.org/Graphics/SVG/1.1/DTD/svg11.dtd">
<svg version="1.1"
	 id="svg5327" xmlns:cc="http://creativecommons.org/ns#" xmlns:rdf="http://www.w3.org/1999/02/22-rdf-syntax-ns#" xmlns:sodipodi="http://sodipodi.sourceforge.net/DTD/sodipodi-0.dtd" xmlns:inkscape="http://www.inkscape.org/namespaces/inkscape" xmlns:dc="http://purl.org/dc/elements/1.1/" xmlns:svg="http://www.w3.org/2000/svg" inkscape:export-xdpi="180" inkscape:export-ydpi="180" sodipodi:docname="leaflet.routing.icons.svg" inkscape:export-filename="/home/patrick/Code/leaflet-routing-machine/leaflet.routing.icons.png" inkscape:version="0.48.5 r10040"
	 xmlns="http://www.w3.org/2000/svg" xmlns:xlink="http://www.w3.org/1999/xlink" x="0px" y="0px" width="240px" height="20px"
	 viewBox="0 122 240 20" enable-background="new 0 122 240 20" xml:space="preserve">
<sodipodi:namedview  inkscape:cx="309.06303" showgrid="false" pagecolor="#ffffff" bordercolor="#666666" borderopacity="1.0" showguides="true" fit-margin-left="0" fit-margin-top="0" inkscape:zoom="2" inkscape:cy="10.10151" id="base" inkscape:window-height="1032" fit-margin-right="0" inkscape:window-y="22" inkscape:window-width="1916" inkscape:current-layer="layer1" inkscape:window-maximized="0" inkscape:snap-bbox="true" inkscape:pageopacity="0" inkscape:window-x="0" inkscape:document-units="px" fit-margin-bottom="0" inkscape:pageshadow="2" inkscape:snap-nodes="false" inkscape:guide-bbox="true">
	<inkscape:grid  type="xygrid" visible="true" empspacing="5" enabled="true" id="grid5368" snapvisiblegridlinesonly="true">
		</inkscape:grid>
	<sodipodi:guide  position="206,16" orientation="0,1" id="guide7926"></sodipodi:guide>
	<sodipodi:guide  position="202,4" orientation="0,1" id="guide7928"></sodipodi:guide>
	<sodipodi:guide  position="280,48" orientation="1,0" id="guide3009"></sodipodi:guide>
	<sodipodi:guide  position="300,43" orientation="1,0" id="guide3011"></sodipodi:guide>
</sodipodi:namedview>
<g id="layer1" transform="translate(-3200,-992.36218)" inkscape:label="Layer 1" inkscape:groupmode="layer">
	<path id="path6002-6-5-5" sodipodi:nodetypes="cccccccc" inkscape:connector-curvature="0" d="M3215.5,1001.4l-5.5-5.5l-5.5,5.5
		h4.5v7h2v-7H3215.5z"/>
	<path id="rect4998" inkscape:connector-curvature="0" d="M3289,996.4c-1.7,0-3.1,0.6-3.9,1.6c-0.8,1-1.1,2.2-1.1,3.4v6h2v-6
		c0-0.8,0.2-1.6,0.7-2.1c0.4-0.5,1.1-0.9,2.3-0.9s1.9,0.4,2.3,0.9c0.4,0.5,0.7,1.3,0.7,2.1v2h-4.5l5.5,5.5l5.5-5.5h-4.5v-2
		c0-1.2-0.3-2.4-1.1-3.4C3292.1,997,3290.7,996.4,3289,996.4z"/>
	<path id="path4705" sodipodi:nodetypes="cccccccccc" inkscape:connector-curvature="0" d="M3266.5,996.4l3,3l-3.5,3.5v5.4h2v-4.6
		l2.9-3l3.1,3.1v-7.5H3266.5z"/>
	<path id="path4878" sodipodi:nodetypes="ccccccccccc" inkscape:connector-curvature="0" d="M3251,995.9v4.5h-5l-1,1v6h2v-5h4v4.5
		l5.5-5.5L3251,995.9z"/>
	<path id="path4886" inkscape:connector-curvature="0" d="M3226.4,996.4l-1.4,1v8h2v-5.6l4.6,4.5l-3.1,3.1h7.5v-7.5l-3,3
		L3226.4,996.4L3226.4,996.4z"/>
	<path id="path4941" sodipodi:nodetypes="cccccccccc" inkscape:connector-curvature="0" d="M3346,996.4v7.5l3.1-3.1l2.9,3v4.6h2
		v-5.4l-3.5-3.5l3-3H3346z"/>
	<path id="path4945" sodipodi:nodetypes="ccccccccccc" inkscape:connector-curvature="0" d="M3329,995.9v4.5h5l1,1v6h-2v-5h-4v4.5
		l-5.5-5.5L3329,995.9z"/>
	<path id="path4947" inkscape:connector-curvature="0" d="M3313.6,996.4l-6.5,6.5l-3-3v7.5h7.5l-3.1-3.1l4.6-4.5v5.6h2v-8
		L3313.6,996.4L3313.6,996.4z"/>
	<path id="path5026" sodipodi:nodetypes="scccsccscccccss" inkscape:connector-curvature="0" d="M3390,995.4c-1.5,0-3.1,0.6-4.2,1.7
		c-2.3,2.3-2.3,6.2,0,8.5l1.4-1.4c-1.6-1.6-1.6-4.1,0-5.6c1.6-1.6,4.1-1.6,5.6,0c1.6,1.6,1.6,4.1,0,5.6c-0.8,0.8-1.8,1.2-2.8,1.2h-1
		v4h2v-2.1c1.2-0.2,2.4-0.8,3.2-1.7c2.3-2.3,2.3-6.2,0-8.5C3393.1,995.9,3391.5,995.4,3390,995.4z"/>
	<g id="g5936" transform="matrix(1,0,0,-1,1,2004.7244)" opacity="0.5">
	</g>
	<g id="g5932" transform="translate(1,-2)">
	</g>
	<g id="g6038" transform="matrix(1,0,0,-1,1,2024.7244)">
	</g>
	
		<g id="a-18" transform="translate(3360.5,-23.000003)" inkscape:export-xdpi="90" inkscape:export-ydpi="90" inkscape:label="#g6597">
		<rect id="rect6083" y="1016.4" fill-opacity="0" width="18" height="18"/>
		<text transform="matrix(1 0 0 1 3.7207 1031.3622)" font-family="'OpenSans-Bold'" font-size="16.7411">A</text>
	</g>
	<g id="b-18" transform="translate(3401,-23.00002)" inkscape:export-xdpi="90" inkscape:export-ydpi="90" inkscape:label="#g6602">
		<rect id="rect6604" y="1016.4" fill-opacity="0" width="18" height="18"/>
		<text transform="matrix(1 0 0 1 3.4897 1031.3622)" font-family="'OpenSans-Bold'" font-size="16.8098">B</text>
	</g>
	<rect id="rect3033" x="3421" y="993.4" fill-opacity="0" width="18" height="18"/>
	<text transform="matrix(1 0 0 1 3422.9858 1008.3622)" font-family="'OpenSans-Bold'" font-size="16.8098">V</text>
	<text transform="matrix(0.9066 0 0 1 3432.8315 1008.2704)" font-family="'OpenSans-Bold'" font-size="6.4606">ia</text>
</g>
<g id="layer1_1_" transform="translate(-3200,-992.36218)" inkscape:label="Layer 1" inkscape:groupmode="layer">
	<path id="path6002-6-5-5_1_" sodipodi:nodetypes="cccccccc" inkscape:connector-curvature="0" fill="#41007E" d="M3215.5,1057.4
		l-5.5-5.5l-5.5,5.5h4.5v7h2v-7H3215.5z"/>
	<path id="rect4998_1_" inkscape:connector-curvature="0" fill="#41007E" d="M3289,1052.4c-1.7,0-3.1,0.6-3.9,1.6
		c-0.8,1-1.1,2.2-1.1,3.4v6h2v-6c0-0.8,0.2-1.6,0.7-2.1c0.4-0.5,1.1-0.9,2.3-0.9s1.9,0.4,2.3,0.9c0.4,0.5,0.7,1.3,0.7,2.1v2h-4.5
		l5.5,5.5l5.5-5.5h-4.5v-2c0-1.2-0.3-2.4-1.1-3.4C3292.1,1053,3290.7,1052.4,3289,1052.4z"/>
	<path id="path4705_1_" sodipodi:nodetypes="cccccccccc" inkscape:connector-curvature="0" fill="#41007E" d="M3266.5,1052.4l3,3
		l-3.5,3.5v5.4h2v-4.6l2.9-3l3.1,3.1v-7.5H3266.5z"/>
	<path id="path4878_1_" sodipodi:nodetypes="ccccccccccc" inkscape:connector-curvature="0" fill="#41007E" d="M3251,1051.9v4.5h-5
		l-1,1v6h2v-5h4v4.5l5.5-5.5L3251,1051.9z"/>
	<path id="path4886_1_" inkscape:connector-curvature="0" fill="#41007E" d="M3226.4,1052.4l-1.4,1v8h2v-5.6l4.6,4.5l-3.1,3.1h7.5
		v-7.5l-3,3L3226.4,1052.4L3226.4,1052.4z"/>
	<path id="path4941_1_" sodipodi:nodetypes="cccccccccc" inkscape:connector-curvature="0" fill="#41007E" d="M3346,1052.4v7.5
		l3.1-3.1l2.9,3v4.6h2v-5.4l-3.5-3.5l3-3H3346z"/>
	<path id="path4945_1_" sodipodi:nodetypes="ccccccccccc" inkscape:connector-curvature="0" fill="#41007E" d="M3329,1051.9v4.5h5
		l1,1v6h-2v-5h-4v4.5l-5.5-5.5L3329,1051.9z"/>
	<path id="path4947_1_" inkscape:connector-curvature="0" fill="#41007E" d="M3313.6,1052.4l-6.5,6.5l-3-3v7.5h7.5l-3.1-3.1l4.6-4.5
		v5.6h2v-8L3313.6,1052.4L3313.6,1052.4z"/>
	<path id="path5026_1_" sodipodi:nodetypes="scccsccscccccss" inkscape:connector-curvature="0" fill="#41007E" d="M3390,1051.4
		c-1.5,0-3.1,0.6-4.2,1.7c-2.3,2.3-2.3,6.2,0,8.5l1.4-1.4c-1.6-1.6-1.6-4.1,0-5.6s4.1-1.6,5.6,0c1.6,1.6,1.6,4.1,0,5.6
		c-0.8,0.8-1.8,1.2-2.8,1.2h-1v4h2v-2.1c1.2-0.2,2.4-0.8,3.2-1.7c2.3-2.3,2.3-6.2,0-8.5C3393.1,1051.9,3391.5,1051.4,3390,1051.4z"
		/>
	<g id="g5936_1_" transform="matrix(1,0,0,-1,1,2004.7244)" opacity="0.5">
	</g>
	<g id="g5932_1_" transform="translate(1,-2)">
	</g>
	<g id="g6038_1_" transform="matrix(1,0,0,-1,1,2024.7244)">
	</g>
	
		<g id="a-18_1_" transform="translate(3360.5,-23.000003)" inkscape:export-xdpi="90" inkscape:export-ydpi="90" inkscape:label="#g6597">
		<rect id="rect6083_1_" y="1072.4" fill="#41007E" fill-opacity="0" width="18" height="18"/>
		<text transform="matrix(1 0 0 1 3.7207 1087.3622)" fill="#41007E" font-family="'OpenSans-Bold'" font-size="16.7411">A</text>
	</g>
	
		<g id="b-18_1_" transform="translate(3401,-23.00002)" inkscape:export-xdpi="90" inkscape:export-ydpi="90" inkscape:label="#g6602">
		<rect id="rect6604_1_" y="1072.4" fill="#41007E" fill-opacity="0" width="18" height="18"/>
		<text transform="matrix(1 0 0 1 3.4897 1087.3622)" fill="#41007E" font-family="'OpenSans-Bold'" font-size="16.8098">B</text>
	</g>
	<rect id="rect3033_1_" x="3421" y="1049.4" fill="#41007E" fill-opacity="0" width="18" height="18"/>
	<text transform="matrix(1 0 0 1 3422.9858 1064.3622)" fill="#41007E" font-family="'OpenSans-Bold'" font-size="16.8098">V</text>
	<text transform="matrix(0.9066 0 0 1 3432.8315 1064.2704)" fill="#41007E" font-family="'OpenSans-Bold'" font-size="6.4606">ia</text>
</g>
<g id="layer1_2_" transform="translate(-3200,-992.36218)" inkscape:label="Layer 1" inkscape:groupmode="layer">
	<path id="path6002-6-5-5_2_" sodipodi:nodetypes="cccccccc" inkscape:connector-curvature="0" fill="#022BB1" d="M3215.5,1123.4
		l-5.5-5.5l-5.5,5.5h4.5v7h2v-7H3215.5z"/>
	<path id="rect4998_2_" inkscape:connector-curvature="0" fill="#022BB1" d="M3289,1118.4c-1.7,0-3.1,0.6-3.9,1.6
		c-0.8,1-1.1,2.2-1.1,3.4v6h2v-6c0-0.8,0.2-1.6,0.7-2.1c0.4-0.5,1.1-0.9,2.3-0.9s1.9,0.4,2.3,0.9c0.4,0.5,0.7,1.3,0.7,2.1v2h-4.5
		l5.5,5.5l5.5-5.5h-4.5v-2c0-1.2-0.3-2.4-1.1-3.4C3292.1,1119,3290.7,1118.4,3289,1118.4z"/>
	<path id="path4705_2_" sodipodi:nodetypes="cccccccccc" inkscape:connector-curvature="0" fill="#022BB1" d="M3266.5,1118.4l3,3
		l-3.5,3.5v5.4h2v-4.6l2.9-3l3.1,3.1v-7.5H3266.5z"/>
	<path id="path4878_2_" sodipodi:nodetypes="ccccccccccc" inkscape:connector-curvature="0" fill="#022BB1" d="M3251,1117.9v4.5h-5
		l-1,1v6h2v-5h4v4.5l5.5-5.5L3251,1117.9z"/>
	<path id="path4886_2_" inkscape:connector-curvature="0" fill="#022BB1" d="M3226.4,1118.4l-1.4,1v8h2v-5.6l4.6,4.5l-3.1,3.1h7.5
		v-7.5l-3,3L3226.4,1118.4L3226.4,1118.4z"/>
	<path id="path4941_2_" sodipodi:nodetypes="cccccccccc" inkscape:connector-curvature="0" fill="#022BB1" d="M3346,1118.4v7.5
		l3.1-3.1l2.9,3v4.6h2v-5.4l-3.5-3.5l3-3H3346z"/>
	<path id="path4945_2_" sodipodi:nodetypes="ccccccccccc" inkscape:connector-curvature="0" fill="#022BB1" d="M3329,1117.9v4.5h5
		l1,1v6h-2v-5h-4v4.5l-5.5-5.5L3329,1117.9z"/>
	<path id="path4947_2_" inkscape:connector-curvature="0" fill="#022BB1" d="M3313.6,1118.4l-6.5,6.5l-3-3v7.5h7.5l-3.1-3.1l4.6-4.5
		v5.6h2v-8L3313.6,1118.4L3313.6,1118.4z"/>
	<path id="path5026_2_" sodipodi:nodetypes="scccsccscccccss" inkscape:connector-curvature="0" fill="#022BB1" d="M3390,1117.4
		c-1.5,0-3.1,0.6-4.2,1.7c-2.3,2.3-2.3,6.2,0,8.5l1.4-1.4c-1.6-1.6-1.6-4.1,0-5.6s4.1-1.6,5.6,0c1.6,1.6,1.6,4.1,0,5.6
		c-0.8,0.8-1.8,1.2-2.8,1.2h-1v4h2v-2.1c1.2-0.2,2.4-0.8,3.2-1.7c2.3-2.3,2.3-6.2,0-8.5C3393.1,1117.9,3391.5,1117.4,3390,1117.4z"
		/>
	<g id="g5936_2_" transform="matrix(1,0,0,-1,1,2004.7244)" opacity="0.5">
	</g>
	<g id="g5932_2_" transform="translate(1,-2)">
	</g>
	<g id="g6038_2_" transform="matrix(1,0,0,-1,1,2024.7244)">
	</g>
	
		<g id="a-18_2_" transform="translate(3360.5,-23.000003)" inkscape:export-xdpi="90" inkscape:export-ydpi="90" inkscape:label="#g6597">
		<rect id="rect6083_4_" y="1138.4" fill="#022BB1" fill-opacity="0" width="18" height="18"/>
		<text transform="matrix(1 0 0 1 3.7207 1153.3622)" fill="#022BB1" font-family="'OpenSans-Bold'" font-size="16.7411">A</text>
	</g>
	
		<g id="b-18_2_" transform="translate(3401,-23.00002)" inkscape:export-xdpi="90" inkscape:export-ydpi="90" inkscape:label="#g6602">
		<rect id="rect6604_4_" y="1138.4" fill="#022BB1" fill-opacity="0" width="18" height="18"/>
		<text transform="matrix(1 0 0 1 3.4897 1153.3622)" fill="#022BB1" font-family="'OpenSans-Bold'" font-size="16.8098">B</text>
	</g>
	<rect id="rect3033_4_" x="3421" y="1115.4" fill="#022BB1" fill-opacity="0" width="18" height="18"/>
	<text transform="matrix(1 0 0 1 3422.9858 1130.3622)" fill="#022BB1" font-family="'OpenSans-Bold'" font-size="16.8098">V</text>
	<text transform="matrix(0.9066 0 0 1 3432.8315 1130.2704)" fill="#022BB1" font-family="'OpenSans-Bold'" font-size="6.4606">ia</text>
</g>
<rect x="-169" y="-206" fill="#41007E" width="68" height="68"/>
<rect x="-169" y="-114" fill="#022BB1" width="68" height="68"/>
</svg>
