<?xml version="1.0" encoding="utf-8"?>
<!-- Generator: Adobe Illustrator 17.1.0, SVG Export Plug-In . SVG Version: 6.00 Build 0)  -->
<!DOCTYPE svg PUBLIC "-//W3C//DTD SVG 1.1//EN" "http://www.w3.org/Graphics/SVG/1.1/DTD/svg11.dtd">
<svg version="1.1" id="Layer_1" xmlns="http://www.w3.org/2000/svg" xmlns:xlink="http://www.w3.org/1999/xlink" x="0px" y="0px"
	 viewBox="0 0 160 70" enable-background="new 0 0 160 70" xml:space="preserve">
<linearGradient id="SVGID_1_" gradientUnits="userSpaceOnUse" x1="4.6394" y1="28.3994" x2="153.3606" y2="28.3994">
	<stop  offset="0" style="stop-color:#005592"/>
	<stop  offset="1" style="stop-color:#582B7A"/>
</linearGradient>
<path fill="url(#SVGID_1_)" d="M152.7,9.6c-0.5-0.5-1.1-0.7-1.8-0.7l-9.3,0c-1.2-0.1-2,0.4-2.4,1.5l-3.9,10.7l-2.8-7.6l-1.1-3.1
	c-0.4-1-1.2-1.5-2.4-1.5h-12.2c-0.7,0-1.2,0.2-1.7,0.7c-0.5,0.5-0.7,1.1-0.7,1.7v34.2c0,0.7,0.2,1.2,0.7,1.7c0.5,0.5,1,0.7,1.7,0.7
	c0.7,0,1.2-0.2,1.7-0.7c0.5-0.5,0.7-1.1,0.7-1.7V25.2l7.6,21.1c0.4,1,1.2,1.5,2.3,1.5c1.1,0,1.9-0.5,2.3-1.5l3.9-10.7l3.3,9.3l0,0
	l0.5,1.4c0.2,0.5,0.5,0.8,1,1.1c0.5,0.3,0.9,0.4,1.4,0.4h9.3c0.7,0,1.3-0.2,1.8-0.7c0.5-0.5,0.7-1,0.7-1.7V11.3
	C153.4,10.7,153.1,10.1,152.7,9.6z M129.1,38.1l-8.8-24.3h7l1.1,2.9l0,0l4.2,11.7L129.1,38.1z M148.5,43h-5.2l-0.5-1.3l0,0l0,0
	l-1.6-4.4c0,0,0,0,0,0l-3.3-9l5.3-14.6h5.3V43z M24.2,18.6c-2.7,0-5,1-6.9,2.9s-2.9,4.2-2.9,6.9c0,2.7,1,5,2.9,6.9s4.2,2.9,6.9,2.9
	c2.7,0,5-1,6.9-2.9c1.9-1.9,2.9-4.2,2.9-6.9c0-2.7-1-5-2.9-6.9C29.2,19.6,26.9,18.6,24.2,18.6z M27.6,31.8c-1,1-2.1,1.4-3.5,1.4
	c-1.4,0-2.5-0.5-3.5-1.4c-1-1-1.4-2.1-1.4-3.5c0-1.3,0.5-2.5,1.4-3.5c1-1,2.1-1.4,3.5-1.4c1.3,0,2.5,0.5,3.5,1.4
	c1,1,1.4,2.1,1.4,3.5C29,29.7,28.6,30.9,27.6,31.8z M24.2,8.9c-5.4,0-10,1.9-13.8,5.7C6.5,18.4,4.6,23,4.6,28.4
	c0,5.4,1.9,10,5.7,13.8c3.8,3.8,8.4,5.7,13.8,5.7c5.4,0,10-1.9,13.8-5.7c3.8-3.8,5.7-8.4,5.7-13.8c0-5.4-1.9-10-5.7-13.8
	C34.1,10.8,29.5,8.9,24.2,8.9z M34.5,38.8c-2.9,2.9-6.3,4.3-10.4,4.3s-7.5-1.4-10.4-4.3c-2.9-2.9-4.3-6.3-4.3-10.4s1.4-7.5,4.3-10.4
	c2.9-2.9,6.3-4.3,10.4-4.3s7.5,1.4,10.4,4.3c2.9,2.9,4.3,6.3,4.3,10.4S37.4,35.9,34.5,38.8z M50,28.4c-1.6-2.2-2.4-4.6-2.4-7.3
	c0-3.3,1.3-6.1,3.9-8.6c2.5-2.4,5.3-3.6,8.2-3.6c2.5,0,4.7,0.6,6.5,1.7c1.4,0.9,2.9,2.3,4.4,4.3c0.6,0.7,0.9,1.4,0.9,2
	c0,0.7-0.2,1.3-0.7,1.7c-0.5,0.5-1,0.7-1.7,0.7c-0.8,0-1.5-0.3-2-1c-2.3-3-4.8-4.6-7.4-4.6c-2,0-3.7,0.7-5.1,2.1
	c-1.4,1.4-2.1,3.2-2.1,5.2c0,1.5,0.4,2.8,1.2,4.1l7.8,8.9c0.5,0.5,0.7,1.1,0.7,1.7c0,0.7-0.2,1.2-0.7,1.7c-0.5,0.5-1,0.7-1.7,0.7
	c-0.7,0-1.3-0.3-1.8-0.8L50,28.4z M102.6,32.2l5,12.3c0.3,0.6,0.3,1.3,0,1.9c-0.3,0.6-0.7,1.1-1.4,1.3c-0.6,0.2-1.3,0.2-1.9,0
	c-0.6-0.3-1.1-0.7-1.3-1.4l-6-14.6c-0.2-0.6-0.2-1.2,0-1.8c0.2-0.6,0.6-1,1.1-1.3l0.2-0.1l0.1,0l0.1,0l0,0l0.1,0h0h0l0,0h0
	c0.8-0.2,1.4-0.5,1.8-0.6c2.4-1.3,3.6-3.5,3.6-6.7c0-1.8-0.7-3.5-2.1-5c-1.4-1.5-3.1-2.3-5.1-2.4H82.2v31.7c0,0.7-0.2,1.2-0.7,1.7
	c-0.5,0.5-1.1,0.7-1.7,0.7c-0.7,0-1.2-0.2-1.7-0.7c-0.5-0.5-0.7-1-0.7-1.7V11.3c0-0.7,0.2-1.2,0.7-1.7c0.5-0.5,1.1-0.7,1.8-0.7h17.1
	c3.3,0,6.2,1.2,8.6,3.7c2.4,2.4,3.6,5.3,3.6,8.5c0,2.5-0.6,4.7-1.8,6.7C106.1,29.7,104.6,31.1,102.6,32.2z M69.5,28.4
	c1.6,1.9,2.4,4.3,2.4,7.3c0,3.3-1.3,6.1-3.9,8.6c-2.5,2.4-5.3,3.6-8.3,3.6c-2.5,0-4.7-0.6-6.5-1.7c-1.4-0.9-2.9-2.3-4.4-4.3
	c-0.6-0.7-0.9-1.4-0.9-2c0-0.7,0.2-1.3,0.7-1.7c0.5-0.5,1-0.7,1.7-0.7c0.8,0,1.5,0.3,2,1c2.3,3,4.8,4.6,7.4,4.6c2,0,3.8-0.7,5.2-2.1
	c1.4-1.4,2.1-3.2,2.1-5.2c0-1.7-0.4-3-1.2-4.1l-7.8-8.9c-0.5-0.5-0.7-1.1-0.7-1.7c0-0.7,0.2-1.2,0.7-1.7c0.5-0.5,1-0.7,1.7-0.7
	c0.7,0,1.3,0.3,1.8,0.8L69.5,28.4z M98.6,22.8c-0.5,0.5-1.1,0.7-1.7,0.7H92v22c0,0.7-0.2,1.2-0.7,1.7c-0.5,0.5-1,0.7-1.7,0.7
	c-0.7,0-1.2-0.2-1.7-0.7c-0.5-0.5-0.7-1.1-0.7-1.7V21.2c0-0.8,0.2-1.4,0.7-1.9c0.5-0.5,1-0.7,1.8-0.7h7.3c0.7,0,1.2,0.2,1.7,0.7
	c0.5,0.5,0.7,1,0.7,1.7C99.3,21.7,99,22.3,98.6,22.8z"/>
</svg>
