<?xml version="1.0" encoding="utf-8"?>
<!-- Generator: Adobe Illustrator 17.1.0, SVG Export Plug-In . SVG Version: 6.00 Build 0)  -->
<!DOCTYPE svg PUBLIC "-//W3C//DTD SVG 1.1//EN" "http://www.w3.org/Graphics/SVG/1.1/DTD/svg11.dtd">
<svg version="1.1" id="Layer_1" xmlns="http://www.w3.org/2000/svg" xmlns:xlink="http://www.w3.org/1999/xlink" x="0px" y="0px"
	 width="235px" height="43px" viewBox="-53 0 235 43" enable-background="new -53 0 235 43" xml:space="preserve">
<g id="Layer_2_1_" display="none">
	<rect x="-8.2" y="-6.9" display="inline" fill="#8C1C6C" width="140.3" height="37.1"/>
</g>
<g id="Layer_1_1_" display="none">
	<g id="Layer_2" display="inline">
		<rect x="-2.8" y="-4" width="108.8" height="29.6"/>
	</g>
	<g id="Layer_3" display="inline">
		<g id="_x39__33_">
			<g>
				<path fill="#FFFFFF" d="M115.4,39.7v7.5c0,0.5-0.5,0.9-1,0.9h-11.2c-0.5,0-0.9-0.4-0.9-0.9V36c0-0.5,0.4-1,0.9-1h7.5v-0.9h-7.5
					c-1,0-1.9,0.9-1.9,2v11.2c0,1,0.8,1.9,1.9,1.9h11.2c1,0,2-0.8,2-1.9v-7.5L115.4,39.7L115.4,39.7z"/>
			</g>
		</g>
		<g id="_x39__31_">
			<g>
				<path fill="#FFFFFF" d="M41.1,32.2l-1.6-1.6c-0.4-0.4-1-0.4-1.3,0L31,37.8c-0.1,0.1-0.2,0.3-0.2,0.5l-2,4.1
					c-0.2,0.5,0.2,0.9,0.7,0.7l4.1-2c0.2,0,0.3-0.1,0.5-0.2l7.2-7.2C41.4,33.2,41.4,32.6,41.1,32.2z M29.8,42.1
					c-0.2,0.1-0.4-0.1-0.3-0.3l1.5-2.5l1.3,1.3L29.8,42.1z M33.2,40.1c-0.6-0.6-1.5-1.5-1.6-1.6l5.3-5.3l1.7,1.6L33.2,40.1z
					 M40.1,33.2l-1,1l-1.6-1.7l1-1c0.2-0.2,0.5-0.2,0.7,0l1,1C40.3,32.7,40.3,33,40.1,33.2z"/>
			</g>
		</g>
		<g>
			<path fill="none" d="M25.7,43.6L25.7,43.6l0.9-1.8V38c0-0.4,0.3-0.8,0.8-0.8s0.8,0.3,0.8,0.8v0.8l0.1-0.1l2.2-2.2L27,35.2L24,37
				v9.6l2.1-1.3c-0.1-0.1-0.2-0.2-0.2-0.2C25.6,44.7,25.5,44.1,25.7,43.6z"/>
			<path fill="#FFFFFF" d="M27.4,37.7c-0.1,0-0.3,0.1-0.3,0.3v2.9l0.5-1.1V38C27.6,37.9,27.5,37.7,27.4,37.7z"/>
			<path fill="#FFFFFF" d="M27.1,43.1c0,0.1,0.1,0.3,0.3,0.3s0.3-0.1,0.3-0.3v-3.3l-0.5,1.1L27.1,43.1L27.1,43.1z"/>
			<path fill="#FFFFFF" d="M31.4,39.3c-0.1,0-0.3,0.1-0.3,0.3v3.1c0,0.1,0.1,0.3,0.3,0.3s0.3-0.1,0.3-0.3v-3.1
				C31.7,39.4,31.6,39.3,31.4,39.3z"/>
			<path fill="#FFFFFF" d="M31.1,35.6h-0.2l-4-1.5L23,36.6v11.7l3.7-2.3h0.2l4,1.5l4-3h0.3l3.7,2.8v-8.4l-0.5,0.5V46L38,46.1l-3-2.2
				l-3.9,3h-0.2l-3.4-1.3c-0.1,0-0.2,0-0.4,0c-0.2,0-0.3,0-0.5-0.1l-2.7,1.7L23.5,47V36.9l0.1-0.2l3.1-1.9h0.2l3.9,1.4"/>
			<path fill="#FFFFFF" d="M26.6,45.6c0.2,0.1,0.3,0.1,0.5,0.1c0.1,0,0.2,0,0.4,0l-0.6-0.2L26.6,45.6z"/>
			<polygon fill="#FFFFFF" points="37.9,45.4 35.2,43.4 34.9,43.4 30.9,46.4 28.1,45.4 27.8,45.5 30.9,46.7 35,43.6 38.1,45.9 
				38.1,37.6 37.9,39.8 			"/>
			<path fill="#FFFFFF" d="M26.1,45.3L24,46.6V37l2.8-1.8l3.5,1.3l0.2-0.2l-3.7-1.4l-3.1,1.9V47l2.6-1.6
				C26.3,45.4,26.2,45.4,26.1,45.3z"/>
			<path fill="#FFFFFF" d="M27.8,45.5l0.3-0.2l-1.2-0.4h-0.2l-0.6,0.4c0.1,0.1,0.1,0.1,0.2,0.2l0.5-0.3L27.8,45.5z"/>
			<polyline fill="#FFFFFF" points="31.2,35.3 26.9,33.7 26.7,33.7 22.6,36.3 22.5,36.5 22.5,48.8 22.9,49 26.9,46.5 30.8,48 
				31.1,47.9 35,45 39,47.9 39.4,47.7 39.4,38.3 39.1,38.6 39.1,47.7 35,44.7 30.9,47.7 26.8,46.2 22.8,48.8 22.8,36.5 26.8,33.9 
				31.1,35.7 			"/>
			<path fill="#FFFFFF" d="M27.4,37.2c-0.4,0-0.8,0.3-0.8,0.8v3.9l0.2-0.5V38c0-0.3,0.2-0.5,0.5-0.5s0.5,0.2,0.5,0.5v1.2
				c0.1-0.1,0.2-0.3,0.2-0.4V38C28.1,37.6,27.8,37.2,27.4,37.2z"/>
			<path fill="#FFFFFF" d="M27.9,43.1c0,0.3-0.2,0.5-0.5,0.5s-0.5-0.2-0.5-0.5v-1.8l-0.2,0.5v1.3c0,0.4,0.3,0.8,0.8,0.8
				s0.8-0.3,0.8-0.8v-4.3c-0.1,0.1-0.2,0.2-0.2,0.4v3.9C28.1,43.1,27.9,43.1,27.9,43.1z"/>
			<path fill="#FFFFFF" d="M32.2,42.6v-3.1c0-0.4-0.3-0.8-0.8-0.8s-0.8,0.3-0.8,0.8v3.1c0,0.4,0.3,0.8,0.8,0.8S32.2,43,32.2,42.6z
				 M32,42.6c0,0.3-0.2,0.5-0.5,0.5S31,42.9,31,42.6v-3.1c0-0.3,0.2-0.5,0.5-0.5s0.5,0.2,0.5,0.5V42.6z"/>
			<path fill="#FFFFFF" d="M38.1,45.9L35,43.6l-4.1,3.1l-3.1-1.2l0,0c-0.1,0.1-0.2,0.1-0.3,0.1l3.4,1.3h0.2l3.9-3l2.9,2.2l0.4-0.2
				v-8.6l-0.2,0.3C38.1,37.6,38.1,45.9,38.1,45.9z"/>
			<path fill="#FFFFFF" d="M26.7,34.7l-3.1,1.9l-0.1,0.2V47l0.4,0.2l2.7-1.7c-0.1,0-0.2-0.1-0.3-0.1L23.7,47V36.9l3.1-1.9l3.7,1.4
				l0.2-0.2l-3.9-1.4L26.7,34.7z"/>
			<path fill="#FFFFFF" d="M27.8,45.5l-1-0.4l-0.5,0.3c0.1,0.1,0.2,0.1,0.3,0.1l0.3-0.2l0.6,0.2C27.5,45.6,27.7,45.6,27.8,45.5
				L27.8,45.5z"/>
			<path fill="#FFFFFF" d="M27.1,38c0-0.1,0.1-0.3,0.3-0.3s0.3,0.1,0.3,0.3v1.8l0.1-0.2c0-0.1,0.1-0.2,0.1-0.3V38
				c0-0.3-0.2-0.5-0.5-0.5s-0.5,0.2-0.5,0.5v3.4l0.2-0.5V38z"/>
			<path fill="#FFFFFF" d="M27.4,43.6c0.3,0,0.5-0.2,0.5-0.5v-3.9c-0.1,0.1-0.1,0.2-0.1,0.3l-0.1,0.2V43c0,0.1-0.1,0.3-0.3,0.3
				s-0.3-0.1-0.3-0.3v-2.3l-0.2,0.5V43C26.8,43.4,27.1,43.6,27.4,43.6z"/>
			<path fill="#FFFFFF" d="M31.4,39c-0.3,0-0.5,0.2-0.5,0.5v3.1c0,0.3,0.2,0.5,0.5,0.5s0.5-0.2,0.5-0.5v-3.1
				C32,39.3,31.7,39,31.4,39z M31.7,42.6c0,0.1-0.1,0.3-0.3,0.3s-0.3-0.1-0.3-0.3v-3.1c0-0.1,0.1-0.3,0.3-0.3s0.3,0.1,0.3,0.3V42.6z
				"/>
			<polyline fill="#FFFFFF" points="30.9,35.4 26.8,33.9 22.8,36.5 22.8,48.8 26.8,46.2 30.9,47.7 35,44.7 39.1,47.7 39.1,38.6 
				38.9,38.8 38.9,47.2 35.2,44.5 34.9,44.5 30.9,47.4 26.9,46 26.7,46 23,48.3 23,36.6 26.9,34.2 30.8,35.7 31.1,35.6 			"/>
			<path fill="#FFFFFF" d="M35.5,36.2c-0.4,0-0.8,0.3-0.8,0.8v3.9v0.2c0,0.4,0.3,0.8,0.8,0.8s0.8-0.3,0.8-0.8v-1.7V37
				C36.3,36.6,36,36.2,35.5,36.2z"/>
			<path fill="#FFFFFF" d="M38.6,37.2c-0.4,0-0.8,0.3-0.8,0.8v3.9v0.2c0,0.4,0.3,0.8,0.8,0.8s0.8-0.3,0.8-0.8v-1.7V38
				C39.4,37.6,39,37.2,38.6,37.2z"/>
			<path fill="#FFFFFF" d="M26.7,34.3c-0.2,0.4,0,0.8,0.4,1l3.2,1.2l0.2,0.1c0.4,0.2,0.8,0,1-0.4s0-0.8-0.4-1L30,34.8l-2.2-0.9
				C27.3,33.7,26.9,33.9,26.7,34.3z"/>
		</g>
		<g id="_x39__29_">
			<g>
				<path fill="#FFFFFF" d="M72,31.8l-1.6-1.6c-0.4-0.4-1-0.4-1.3,0l-7.2,7.2c-0.1,0.1-0.2,0.3-0.2,0.5l-2,4.1
					c-0.2,0.5,0.2,0.9,0.7,0.7l4.1-2c0.2,0,0.3-0.1,0.5-0.2l7.2-7.2C72.3,32.7,72.3,32.1,72,31.8z M60.7,41.7
					c-0.2,0.1-0.4-0.1-0.3-0.3l1.5-2.5l1.3,1.3L60.7,41.7z M64.1,39.7c-0.6-0.6-1.5-1.5-1.6-1.6l5.3-5.3l1.7,1.6L64.1,39.7z
					 M71,32.8l-1,1l-1.6-1.7l1-1c0.2-0.2,0.5-0.2,0.7,0l1,1C71.2,32.3,71.2,32.6,71,32.8z"/>
			</g>
		</g>
		<g id="_x39__27_">
			<g>
				<path fill="#FFFFFF" d="M100,30.2l-1.6-1.6c-0.4-0.4-1-0.4-1.3,0l-6.2,6.2c-0.1,0.1-0.2,0.3-0.2,0.5l-1.5,3.5
					c-0.2,0.5,0.2,0.9,0.7,0.7l3.6-1.5c0.2,0,0.3-0.1,0.5-0.2l6.2-6.2C100.4,31.2,100.4,30.6,100,30.2z M90.3,38.5
					c-0.2,0.1-0.4-0.1-0.3-0.3l1-2l1.3,1.3L90.3,38.5z M93.1,37.1c-0.6-0.6-1.5-1.5-1.6-1.6l4.3-4.2l1.7,1.6L93.1,37.1z M99,31.2
					l-1,1l-1.6-1.7l1-1c0.2-0.2,0.5-0.2,0.7,0l1,1C99.2,30.7,99.2,31,99,31.2z"/>
			</g>
		</g>
		<g id="_x39__25_">
			<g>
				<path fill="#FFFFFF" d="M116.4,35.6l-1.6-1.6c-0.4-0.4-1-0.4-1.3,0l-6.2,6.2c-0.1,0.1-0.2,0.3-0.2,0.5l-1.5,3.5
					c-0.2,0.5,0.2,0.9,0.7,0.7l3.6-1.5c0.2,0,0.3-0.1,0.5-0.2l6.2-6.2C116.7,36.5,116.7,35.9,116.4,35.6z M106.6,43.9
					c-0.2,0.1-0.4-0.1-0.3-0.3l1-2l1.3,1.3L106.6,43.9z M109.4,42.4c-0.6-0.6-1.5-1.5-1.6-1.6l4.3-4.2l1.7,1.6L109.4,42.4z
					 M115.4,36.5l-1,1l-1.6-1.7l1-1c0.2-0.2,0.5-0.2,0.7,0l1,1C115.5,36.1,115.5,36.4,115.4,36.5z"/>
			</g>
		</g>
		<g>
			<path fill="#FFFFFF" d="M58.2,37.7c-0.1,0-0.3,0.1-0.3,0.3v2.9l0.5-1.1V38C58.5,37.9,58.4,37.7,58.2,37.7z"/>
			<path fill="#FFFFFF" d="M58,43.1c0,0.1,0.1,0.3,0.3,0.3s0.3-0.1,0.3-0.3v-3.3L58,40.9V43.1z"/>
			<path fill="#FFFFFF" d="M58.2,37.2c-0.4,0-0.8,0.3-0.8,0.8v3.9l0.2-0.5V38c0-0.3,0.2-0.5,0.5-0.5s0.5,0.2,0.5,0.5v1.2
				c0.1-0.1,0.2-0.3,0.2-0.4V38C59,37.6,58.7,37.2,58.2,37.2z"/>
			<path fill="#FFFFFF" d="M58.7,43.1c0,0.3-0.2,0.5-0.5,0.5s-0.5-0.2-0.5-0.5v-1.8l-0.2,0.5v1.3c0,0.4,0.3,0.8,0.8,0.8
				s0.8-0.3,0.8-0.8v-4.3c-0.1,0.1-0.2,0.2-0.2,0.4v3.9C58.9,43.1,58.7,43.1,58.7,43.1z"/>
			<path fill="#FFFFFF" d="M58,38c0-0.1,0.1-0.3,0.3-0.3s0.3,0.1,0.3,0.3v1.8l0.1-0.2c0-0.1,0.1-0.2,0.1-0.3V38
				c0-0.3-0.2-0.5-0.5-0.5s-0.5,0.2-0.5,0.5v3.4l0.2-0.5C58,40.9,58,38,58,38z"/>
			<path fill="#FFFFFF" d="M58.2,43.6c0.3,0,0.5-0.2,0.5-0.5v-3.9c-0.1,0.1-0.1,0.2-0.1,0.3l-0.1,0.2V43c0,0.1-0.1,0.3-0.3,0.3
				s-0.2,0-0.2-0.2v-2.3l-0.2,0.5v1.8C57.7,43.4,57.9,43.6,58.2,43.6z"/>
			<path fill="#FFFFFF" d="M67.4,40.3c0-0.4-0.3-0.8-0.8-0.8s-0.8,0.3-0.8,0.8v1.9v0.2c0,0.4,0.3,0.8,0.8,0.8s0.8-0.3,0.8-0.8"/>
			<path fill="#FFFFFF" d="M62.8,41.8c-0.4,0-0.8,0.3-0.8,0.8v0.9v0.2c0,0.4,0.3,0.8,0.8,0.8s0.8-0.3,0.8-0.8V42v0.6
				C63.6,42.1,63.3,41.8,62.8,41.8z"/>
			<path fill="#FFFFFF" d="M69.5,37.2c-0.4,0-0.8,0.3-0.8,0.8v1.8v0.1v5.6l-1.2-0.9c0,0-1.2-1.1-1.7-1.1s-1.4,0.9-1.4,0.9l-2.7,2
				c0,0-3.7-1.6-4.1-1.5c-0.4,0-2.8,1.8-2.8,1.8l0.1-9.7l2.8-1.8l1.7,0.6l1.2,0.5l0.2,0.1c0.4,0.2,0.8,0,1-0.4s-0.1-0.7-0.5-0.9
				l-0.5-0.2c0,0-2.3-1-2-0.9s-0.9-0.4-1.1-0.4c-0.4,0-1.5,0.9-2.7,1.5c-0.3,0.2-1.7,0.9-1.7,1.2c0,0.5-0.1,3.4-0.1,3.8
				c0,1.6-0.1,3.9-0.1,6.5c0,0.9,0.2,1.9,0.6,2c0.5,0.2,0.7,0,1.5-0.4c1.2-0.7,2.5-1.7,2.5-1.7l1.7,0.7c0,0,2,0.9,2.5,0.9
				s1.8-1.4,1.8-1.4l2.2-1.7l2.2,1.7c0,0,1.2,1.4,1.9,1.2c0.5-0.1,0.3-1.7,0.3-1.7v-4.1l0,0v-1.7V38C70.3,37.6,69.9,37.2,69.5,37.2z
				"/>
		</g>
		<path fill="#FFFFFF" d="M92.6,39.5c0-0.3,0.2-0.5,0.5-0.5s0.5,0.2,0.5,0.5v2.8c0,0.3-0.2,0.5-0.5,0.5s-0.5-0.2-0.5-0.5V39.5z"/>
		<path fill="#FFFFFF" d="M88.8,41.8c0-0.3,0.2-0.5,0.5-0.5s0.5,0.2,0.5,0.5v1.8c0,0.3-0.2,0.5-0.5,0.5s-0.5-0.2-0.5-0.5V41.8z"/>
		<path fill="#FFFFFF" d="M85.1,37.3c0-0.3,0.2-0.5,0.5-0.5S86,37,86,37.3V43c0,0.3-0.2,0.5-0.5,0.5S85,43.3,85,43L85.1,37.3
			L85.1,37.3z"/>
		<path fill="#FFFFFF" d="M96.5,37.2c0-0.3-0.2-0.5-0.5-0.5s-0.5,0.2-0.5,0.5v7.5c0,0.3-0.2,0.4-0.4,0.2l-2-1.5
			c-0.2-0.2-0.6-0.2-0.8,0l-2.9,2.2c-0.2,0.2-0.6,0.2-0.9,0.1l-2.8-1.1c-0.3-0.1-0.7-0.1-0.9,0.1l-2,1.2c-0.2,0.1-0.4,0-0.4-0.2
			v-8.4c0-0.3,0.2-0.6,0.4-0.8l2-1.2c0.2-0.1,0.6-0.2,0.9-0.1l0.2,0.1l0,0l0,0l1.8,0.7l0.6,0.2c0.2,0.1,0.5,0,0.6-0.3s0-0.5-0.3-0.6
			l-2.4-0.9l-0.5-0.2c-0.3-0.1-0.7-0.1-0.9,0.1l-2.9,1.8c-0.2,0.1-0.4,0.5-0.4,0.8v10.2c0,0.3,0.2,0.4,0.4,0.2l2.9-1.8
			c0.2-0.1,0.6-0.2,0.9-0.1l2.8,1.1c0.3,0.1,0.6,0,0.9-0.1l2.9-2.2c0.2-0.2,0.6-0.2,0.8,0l2.9,2.2c0.2,0.2,0.4,0.1,0.4-0.2v-5.4
			v-3.6C96.4,37.2,96.5,37.2,96.5,37.2z"/>
		<g id="_x39__23_">
			<g>
				<path fill="#FFFFFF" d="M115.4,73.2v7.5c0,0.5-0.5,0.9-1,0.9h-11.2c-0.5,0-0.9-0.4-0.9-0.9V69.5c0-0.5,0.4-1,0.9-1h7.5v-0.9
					h-7.5c-1,0-1.9,0.9-1.9,2v11.2c0,1,0.8,1.9,1.9,1.9h11.2c1,0,2-0.8,2-1.9v-7.5L115.4,73.2L115.4,73.2z"/>
			</g>
		</g>
		<g id="_x39__20_">
			<g>
				<path fill="#FFFFFF" d="M98.1,65.2l-1.6-1.6c-0.4-0.4-1-0.4-1.3,0L89,69.8c-0.1,0.1-0.2,0.3-0.2,0.5l-1.5,3.5
					c-0.2,0.5,0.2,0.9,0.7,0.7l3.6-1.5c0.2,0,0.3-0.1,0.5-0.2l6.2-6.2C98.5,66.1,98.5,65.5,98.1,65.2z M88.4,73.5
					c-0.2,0.1-0.4-0.1-0.3-0.3l1-2l1.3,1.3L88.4,73.5z M91.2,72c-0.6-0.6-1.5-1.5-1.6-1.6l4.3-4.2l1.7,1.6L91.2,72z M97.1,66.2l-1,1
					l-1.6-1.7l1-1c0.2-0.2,0.5-0.2,0.7,0l1,1C97.3,65.7,97.3,66,97.1,66.2z"/>
			</g>
		</g>
		<g id="_x39__18_">
			<g>
				<path fill="#FFFFFF" d="M116.4,69.1l-1.6-1.6c-0.4-0.4-1-0.4-1.3,0l-6.2,6.2c-0.1,0.1-0.2,0.3-0.2,0.5l-1.5,3.5
					c-0.2,0.5,0.2,0.9,0.7,0.7l3.6-1.5c0.2,0,0.3-0.1,0.5-0.2l6.2-6.2C116.7,70,116.7,69.4,116.4,69.1z M106.6,77.4
					c-0.2,0.1-0.4-0.1-0.3-0.3l1-2l1.3,1.3L106.6,77.4z M109.4,75.9c-0.6-0.6-1.5-1.5-1.6-1.6l4.3-4.2l1.7,1.6L109.4,75.9z
					 M115.4,70l-1,1l-1.6-1.7l1-1c0.2-0.2,0.5-0.2,0.7,0l1,1C115.5,69.6,115.5,69.9,115.4,70z"/>
			</g>
		</g>
		<path fill="#FFFFFF" d="M92.6,73c0-0.3,0.2-0.5,0.5-0.5s0.5,0.2,0.5,0.5v2.8c0,0.3-0.2,0.5-0.5,0.5s-0.5-0.2-0.5-0.5V73z"/>
		<path fill="#FFFFFF" d="M88.8,75.3c0-0.3,0.2-0.5,0.5-0.5s0.5,0.2,0.5,0.5v1.8c0,0.3-0.2,0.5-0.5,0.5s-0.5-0.2-0.5-0.5V75.3z"/>
		<path fill="#FFFFFF" d="M85.1,69.8c0-0.3,0.2-0.5,0.5-0.5s0.5,0.2,0.5,0.5v6.8c0,0.3-0.2,0.5-0.5,0.5s-0.5-0.2-0.5-0.5V69.8z"/>
		<path fill="#FFFFFF" d="M96.5,70.7c0-0.3-0.2-0.5-0.5-0.5s-0.5,0.2-0.5,0.5v7.5c0,0.3-0.2,0.4-0.4,0.2l-2-1.5
			c-0.2-0.2-0.6-0.2-0.8,0l-2.9,2.2c-0.2,0.2-0.6,0.2-0.9,0.1l-2.8-1.1C85.4,78,85,78,84.8,78.2l-2,1.2c-0.2,0.1-0.4,0-0.4-0.2v-9.4
			c0-0.3,0.2-0.6,0.4-0.8l2-1.2c0.2-0.1,0.6-0.2,0.9-0.1l0.2,0.1l0,0l0,0l1.8,0.7l0.6,0.2c0.2,0.1,0.5,0,0.6-0.3s0-0.5-0.3-0.6
			l-2.4-0.9l-0.5-0.2c-0.3-0.1-0.7-0.1-0.9,0.1l-2.9,1.8c-0.2,0.1-0.4,0.5-0.4,0.8v11.2c0,0.3,0.2,0.4,0.4,0.2l2.9-1.8
			c0.2-0.1,0.6-0.2,0.9-0.1l2.8,1.1c0.3,0.1,0.6,0,0.9-0.1l2.9-2.2c0.2-0.2,0.6-0.2,0.8,0l2.9,2.2c0.2,0.2,0.4,0.1,0.4-0.2v-5.4
			L96.5,70.7C96.4,70.7,96.5,70.7,96.5,70.7z"/>
	</g>
	
		<g id="svg5327" inkscape:version="0.48.5 r10040" inkscape:export-filename="/home/patrick/Code/leaflet-routing-machine/leaflet.routing.icons.png" sodipodi:docname="leaflet.routing.icons.svg" inkscape:export-ydpi="180" inkscape:export-xdpi="180" xmlns:cc="http://creativecommons.org/ns#" xmlns:sodipodi="http://sodipodi.sourceforge.net/DTD/sodipodi-0.dtd" xmlns:rdf="http://www.w3.org/1999/02/22-rdf-syntax-ns#" xmlns:svg="http://www.w3.org/2000/svg" xmlns:inkscape="http://www.inkscape.org/namespaces/inkscape" xmlns:dc="http://purl.org/dc/elements/1.1/" display="inline">
		
			<sodipodi:namedview  id="base" inkscape:window-width="1916" inkscape:window-y="22" inkscape:pageshadow="2" inkscape:window-height="1032" fit-margin-right="0" inkscape:window-x="0" inkscape:guide-bbox="true" inkscape:window-maximized="0" inkscape:pageopacity="0" inkscape:snap-nodes="false" inkscape:current-layer="layer1" fit-margin-bottom="0" inkscape:document-units="px" inkscape:snap-bbox="true" bordercolor="#666666" fit-margin-top="0" pagecolor="#ffffff" fit-margin-left="0" borderopacity="1.0" inkscape:zoom="2" inkscape:cx="309.06303" inkscape:cy="10.10151" showgrid="false" showguides="true">
			<inkscape:grid  type="xygrid" id="grid5368" snapvisiblegridlinesonly="true" visible="true" enabled="true" empspacing="5">
				</inkscape:grid>
			<sodipodi:guide  id="guide7926" position="206,16" orientation="0,1"></sodipodi:guide>
			<sodipodi:guide  id="guide7928" position="202,4" orientation="0,1"></sodipodi:guide>
			<sodipodi:guide  id="guide3009" position="280,48" orientation="1,0"></sodipodi:guide>
			<sodipodi:guide  id="guide3011" position="300,43" orientation="1,0"></sodipodi:guide>
		</sodipodi:namedview>
		<g id="_x33__10_">
			<g>
				<path fill="#FFFFFF" d="M85.1,2.8c-4.1,0-7.5,3.4-7.5,7.5s3.4,7.5,7.5,7.5s7.5-3.4,7.5-7.5S89.2,2.8,85.1,2.8z M90.4,6.6
					c0.7,0.9,1,2.1,1.1,3.2h-3.7c0-0.9-0.1-1.7-0.2-2.5C88.6,7.1,89.6,6.9,90.4,6.6z M89.8,5.7C89,6,88.3,6.2,87.4,6.3
					c-0.2-0.9-0.4-1.6-0.8-2.4C87.9,4.2,89,4.9,89.8,5.7z M83.3,9.8c0-0.9,0.1-1.6,0.2-2.4c0.5,0,1.1,0.1,1.6,0.1s1.1,0,1.6-0.1
					c0.1,0.8,0.2,1.6,0.2,2.4H83.3z M86.9,10.7c0,0.9-0.1,1.6-0.2,2.4c-0.5,0-1.1-0.1-1.6-0.1s-1.1,0-1.6,0.1
					c-0.1-0.8-0.2-1.6-0.2-2.4C83.3,10.7,86.9,10.7,86.9,10.7z M84.6,3.8c0.1,0,0.3,0,0.4,0s0.3,0,0.4,0c0.4,0.9,0.8,1.7,1,2.7
					c-0.4,0-1,0.1-1.4,0.1s-1,0-1.4-0.1C83.9,5.5,84.2,4.5,84.6,3.8z M83.5,3.9c-0.3,0.8-0.5,1.5-0.8,2.4c-0.9-0.1-1.6-0.3-2.4-0.5
					C81.1,4.9,82.2,4.2,83.5,3.9z M79.7,6.6c0.9,0.3,1.8,0.5,2.8,0.7c-0.1,0.8-0.2,1.6-0.2,2.5h-3.7C78.6,8.6,79,7.5,79.7,6.6z
					 M79.7,13.9c-0.7-0.9-1-2.1-1.1-3.2h3.7c0,0.9,0.1,1.7,0.2,2.5C81.5,13.3,80.5,13.6,79.7,13.9z M80.3,14.8
					c0.8-0.2,1.5-0.4,2.4-0.5c0.2,0.9,0.4,1.6,0.8,2.4C82.2,16.3,81.1,15.6,80.3,14.8z M85.5,16.7c-0.1,0-0.3,0-0.4,0s-0.3,0-0.4,0
					c-0.4-0.9-0.8-1.7-1-2.7c0.4,0,1-0.1,1.4-0.1s1,0,1.4,0.1C86.2,15,85.9,16,85.5,16.7z M86.6,16.6c0.3-0.8,0.5-1.5,0.8-2.4
					c0.9,0.1,1.6,0.3,2.4,0.5C89,15.6,87.9,16.3,86.6,16.6z M90.4,13.9c-0.9-0.3-1.8-0.5-2.8-0.7c0.1-0.8,0.2-1.6,0.2-2.5h3.7
					C91.5,11.9,91.1,13,90.4,13.9z"/>
			</g>
		</g>
		<g id="_x31__19_">
			<g>
				<path fill="#FFFFFF" d="M115.6,10.1h-1V4.4c0-1.1-0.9-2.1-2.1-2.1h-6.2c-1.1,0-2.1,0.9-2.1,2.1c0,0,0,5.3,0,5.7h-1
					c-1.1,0-2.1,0.9-2.1,2.1v1c0,1.1,0.9,2.1,2.1,2.1h1.1c0.2,0.9,1,1.5,2,1.5h6.2c1,0,1.8-0.7,2-1.5h1.1c1.1,0,2.1-0.9,2.1-2.1v-1
					C117.7,11,116.7,10.1,115.6,10.1z M105.3,4.4c0-0.6,0.5-1,1-1h6.2c0.6,0,1,0.5,1,1v5.7h-8.2V4.4z M112.5,15.7h-6.2
					c-0.6,0-1-0.5-1-1c0-0.6,0.5-1,1-1h6.2c0.6,0,1,0.5,1,1C113.6,15.3,113.1,15.7,112.5,15.7z M116.6,13.1c0,0.6-0.5,1-1,1h-1.1
					c-0.2-0.9-1-1.5-2-1.5h-6.2c-1,0-1.8,0.7-2,1.5h-1.1c-0.6,0-1-0.5-1-1v-1c0-0.6,0.5-1,1-1h12.3c0.6,0,1,0.5,1,1L116.6,13.1
					L116.6,13.1z"/>
			</g>
		</g>
		<g id="_x32__9_">
			<g>
				<path fill="#FFFFFF" d="M7.6,15.8c-0.4,0.4-1,0.4-1.4,0l-0.7-0.7c-0.4-0.4-0.4-1,0-1.4L10.2,9C9.6,8.9,8.8,9.1,8.3,9.6l-3.5,3.5
					c-0.8,0.8-0.8,2,0,2.8l0.7,0.7c0.8,0.8,2,0.8,2.8,0l3.5-3.5c0.5-0.5,0.7-1.2,0.5-1.9L7.6,15.8z M13.4,8.1
					c-0.2-0.2-0.5-0.2-0.7,0l-2.4,2.4c-0.2,0.2-0.2,0.5,0,0.7s0.5,0.2,0.7,0l2.4-2.4C13.5,8.6,13.5,8.3,13.4,8.1z M18.7,3.4L18,2.7
					c-0.8-0.8-2-0.8-2.8,0l-3.4,3.4c-0.5,0.6-0.7,1.3-0.5,1.9L16,3.3C16.3,3,17,3,17.3,3.4L18,4.1c0.4,0.4,0.4,1,0,1.4l-4.7,4.7
					c0.7,0.2,1.4,0,1.9-0.5l3.5-3.5C19.5,5.4,19.5,4.1,18.7,3.4z"/>
			</g>
		</g>
		<g id="_x39__16_">
			<g>
				<path fill="#FFFFFF" d="M42.1,8.2v7.4c0,0.5-0.5,0.9-1,0.9h-11c-0.5,0-0.9-0.4-0.9-0.9v-11c0-0.5,0.4-1,0.9-1h7.4V2.7h-7.4
					c-1,0-1.8,0.9-1.8,1.9v11c0,1,0.8,1.8,1.8,1.8h11c1,0,1.9-0.8,1.9-1.8V8.2H42.1z"/>
			</g>
		</g>
		<g id="_x39__14_">
			<g>
				<path fill="#FFFFFF" d="M69.5,1.9l-1.7-1.7c-0.4-0.4-1-0.4-1.3,0l-6.3,6.2C60.1,6.6,60,6.8,60,6.9l-1.5,3.5
					c-0.2,0.5,0.2,0.9,0.7,0.7l3.6-1.5c0.2,0,0.3-0.1,0.5-0.2l6.3-6.2C69.8,2.8,69.8,2.2,69.5,1.9z M59.7,10.2
					c-0.2,0.1-0.4-0.1-0.3-0.3l1-2l1.3,1.3L59.7,10.2z M62.5,8.8c-0.6-0.6-1.5-1.5-1.7-1.7l4.3-4.2l1.7,1.6L62.5,8.8z M68.5,2.9
					l-1,1l-1.6-1.7l1-1C67,1,67.3,1,67.5,1.2l1,1C68.7,2.4,68.7,2.7,68.5,2.9z"/>
			</g>
		</g>
		<g id="_x39__12_">
			<g>
				<path fill="#FFFFFF" d="M44.1,4.2l-1.6-1.6c-0.4-0.4-0.9-0.4-1.3,0l-6.2,6c-0.1,0.1-0.2,0.3-0.2,0.5l-1.5,3.5
					c-0.2,0.5,0.2,0.9,0.6,0.6l3.5-1.4c0.2,0,0.3-0.1,0.5-0.2L44,5.5C44.4,5.1,44.4,4.5,44.1,4.2z M34.5,12.3
					c-0.2,0.1-0.4-0.1-0.3-0.3l1-1.9l1.3,1.3L34.5,12.3z M37.3,10.9c-0.6-0.6-1.4-1.4-1.6-1.6l4.2-4.1l1.6,1.6L37.3,10.9z M43.1,5.1
					l-1,1l-1.6-1.6l0.9-0.9c0.2-0.2,0.5-0.2,0.6,0l1,1C43.3,4.7,43.3,5,43.1,5.1z"/>
			</g>
		</g>
		<path fill="#FFFFFF" d="M63.9,9.8c0-0.3,0.2-0.5,0.5-0.5s0.5,0.2,0.5,0.5v2.8c0,0.3-0.2,0.5-0.5,0.5s-0.5-0.2-0.5-0.5V9.8z"/>
		<path fill="#FFFFFF" d="M60,12.1c0-0.3,0.2-0.5,0.5-0.5s0.5,0.2,0.5,0.5v1.8c0,0.3-0.2,0.5-0.5,0.5S60,14.2,60,13.9V12.1z"/>
		<path fill="#FFFFFF" d="M56.3,6.5c0-0.3,0.2-0.5,0.5-0.5s0.5,0.2,0.5,0.5v6.8c0,0.3-0.2,0.5-0.5,0.5s-0.5-0.2-0.5-0.5V6.5z"/>
		<path fill="#FFFFFF" d="M67.9,7.4c0-0.3-0.2-0.5-0.5-0.5s-0.5,0.2-0.5,0.5V15c0,0.3-0.2,0.4-0.4,0.2l-2-1.5
			c-0.2-0.2-0.6-0.2-0.8,0l-3,2.2c-0.2,0.2-0.6,0.2-0.9,0.1L57,15c-0.3-0.1-0.7-0.1-0.9,0.1l-2,1.2c-0.2,0.1-0.4,0-0.4-0.2V6.6
			c0-0.3,0.2-0.6,0.4-0.8l2-1.2c0.2-0.1,0.6-0.2,0.9-0.1l0.2,0.1l0,0l0,0L59,5.3l0.6,0.2c0.2,0.1,0.5,0,0.6-0.3
			c0.1-0.2,0-0.5-0.3-0.6l-2.5-0.9l-0.6-0.2c-0.3-0.1-0.7-0.1-0.9,0.1L53,5.4c-0.2,0.1-0.4,0.5-0.4,0.8v11.3c0,0.3,0.2,0.4,0.4,0.2
			l2.9-1.8c0.2-0.1,0.6-0.2,0.9-0.1l2.8,1.1c0.3,0.1,0.7,0,0.9-0.1l3-2.2c0.2-0.2,0.6-0.2,0.8,0l3,2.2c0.2,0.2,0.4,0.1,0.4-0.2
			c0,0,0-5.4,0-5.5V7.4H67.9z"/>
	</g>
</g>
<g id="Layer_1_copy">
	<g id="Layer_2_2_" display="none">
		<rect x="-60.5" y="-4" display="inline" width="216.7" height="59"/>
	</g>
	<g id="Layer_3_1_" display="none">
		<g id="_x39__11_" display="inline">
			<g>
				<path fill="#FFFFFF" d="M174.9,83V98c0,1-1,1.8-2,1.8h-22.3c-1,0-1.8-0.8-1.8-1.8V75.7c0-1,0.8-2,1.8-2h14.9v-1.8h-14.9
					c-2,0-3.8,1.8-3.8,4v22.3c0,2,1.6,3.8,3.8,3.8h22.3c2,0,4-1.6,4-3.8V83.2L174.9,83L174.9,83z"/>
			</g>
		</g>
		<g id="_x39__10_" display="inline">
			<g>
				<path fill="#FFFFFF" d="M26.9,68.1l-3.2-3.2c-0.8-0.8-2-0.8-2.6,0L6.8,79.3c-0.2,0.2-0.4,0.6-0.4,1l-4,8.2
					c-0.4,1,0.4,1.8,1.4,1.4l8.2-4c0.4,0,0.6-0.2,1-0.4l14.3-14.3C27.5,70.1,27.5,68.9,26.9,68.1z M4.4,87.8C4,88,3.6,87.6,3.8,87.2
					l3-5l2.6,2.6L4.4,87.8z M11.2,83.8c-1.2-1.2-3-3-3.2-3.2l10.6-10.6l3.4,3.2L11.2,83.8z M24.9,70.1l-2,2l-3.2-3.4l2-2
					c0.4-0.4,1-0.4,1.4,0l2,2C25.3,69.1,25.3,69.7,24.9,70.1z"/>
			</g>
		</g>
		<g display="inline">
			<path fill="none" d="M-3.8,90.8L-3.8,90.8l1.8-3.6v-7.6c0-0.8,0.6-1.6,1.6-1.6s1.6,0.6,1.6,1.6v1.6L1.4,81l4.4-4.4l-7-2.6l-6,3.6
				v19.1l4.2-2.6c-0.2-0.2-0.4-0.4-0.4-0.4C-4,93-4.2,91.8-3.8,90.8z"/>
			<path fill="#FFFFFF" d="M-0.4,79.1c-0.2,0-0.6,0.2-0.6,0.6v5.8l1-2.2v-3.6C0,79.5-0.2,79.1-0.4,79.1z"/>
			<path fill="#FFFFFF" d="M-1,89.8c0,0.2,0.2,0.6,0.6,0.6s0.6-0.2,0.6-0.6v-6.6l-1,2.2L-1,89.8L-1,89.8z"/>
			<path fill="#FFFFFF" d="M7.6,82.2c-0.2,0-0.6,0.2-0.6,0.6V89c0,0.2,0.2,0.6,0.6,0.6c0.4,0,0.6-0.2,0.6-0.6v-6.2
				C8.2,82.4,8,82.2,7.6,82.2z"/>
			<path fill="#FFFFFF" d="M7,74.9H6.6l-8-3l-7.8,5v23.3l7.4-4.6h0.4l8,3l8-6h0.6l7.4,5.6V81.4l-1,1v13.1l-0.8,0.2l-6-4.4l-7.8,6
				H6.6l-6.8-2.6c-0.2,0-0.4,0-0.8,0c-0.4,0-0.6,0-1-0.2L-7.4,98l-0.8-0.4V77.5l0.2-0.4l6.2-3.8h0.4l7.8,2.8"/>
			<path fill="#FFFFFF" d="M-2,94.8C-1.6,95-1.4,95-1,95c0.2,0,0.4,0,0.8,0l-1.2-0.4L-2,94.8z"/>
			<polygon fill="#FFFFFF" points="20.5,94.4 15.1,90.4 14.5,90.4 6.6,96.4 1,94.4 0.4,94.6 6.6,97 14.7,90.8 20.9,95.4 20.9,78.9 
				20.5,83.2 			"/>
			<path fill="#FFFFFF" d="M-3,94.2l-4.2,2.6V77.7l5.6-3.6l7,2.6l0.4-0.4l-7.4-2.8l-6.2,3.8v20.3l5.2-3.2C-2.6,94.4-2.8,94.4-3,94.2
				z"/>
			<path fill="#FFFFFF" d="M0.4,94.6L1,94.2l-2.4-0.8h-0.4L-3,94.2c0.2,0.2,0.2,0.2,0.4,0.4l1-0.6L0.4,94.6z"/>
			<polyline fill="#FFFFFF" points="7.2,74.3 -1.4,71.1 -1.8,71.1 -10,76.3 -10.2,76.7 -10.2,101.2 -9.4,101.6 -1.4,96.6 6.4,99.6 
				7,99.4 14.7,93.6 22.7,99.4 23.5,99 23.5,80.2 22.9,80.8 22.9,99 14.7,93 6.6,99 -1.6,96 -9.6,101.2 -9.6,76.7 -1.6,71.5 7,75.1 
							"/>
			<path fill="#FFFFFF" d="M-0.4,78.1c-0.8,0-1.6,0.6-1.6,1.6v7.8l0.4-1v-6.8c0-0.6,0.4-1,1-1s1,0.4,1,1V82c0.2-0.2,0.4-0.6,0.4-0.8
				v-1.6C1,78.9,0.4,78.1-0.4,78.1z"/>
			<path fill="#FFFFFF" d="M0.6,89.8c0,0.6-0.4,1-1,1s-1-0.4-1-1v-3.6l-0.4,1v2.6c0,0.8,0.6,1.6,1.6,1.6s1.6-0.6,1.6-1.6v-8.6
				C1.2,81.4,1,81.6,1,82v7.8C1,89.8,0.6,89.8,0.6,89.8z"/>
			<path fill="#FFFFFF" d="M9.2,88.8v-6.2c0-0.8-0.6-1.6-1.6-1.6S6,81.6,6,82.6v6.2c0,0.8,0.6,1.6,1.6,1.6S9.2,89.6,9.2,88.8z
				 M8.8,88.8c0,0.6-0.4,1-1,1s-1-0.4-1-1v-6.2c0-0.6,0.4-1,1-1s1,0.4,1,1V88.8z"/>
			<path fill="#FFFFFF" d="M20.9,95.4l-6.2-4.6L6.6,97l-6.2-2.4l0,0c-0.2,0.2-0.4,0.2-0.6,0.2l6.8,2.6H7l7.8-6l5.8,4.4l0.8-0.4V78.3
				l-0.4,0.6C20.9,78.9,20.9,95.4,20.9,95.4z"/>
			<path fill="#FFFFFF" d="M-1.8,73.1L-8,76.9l-0.2,0.4v20.3l0.8,0.4l5.4-3.4c-0.2,0-0.4-0.2-0.6-0.2l-5.2,3.2V77.5l6.2-3.8l7.4,2.8
				l0.4-0.4l-7.8-2.8L-1.8,73.1z"/>
			<path fill="#FFFFFF" d="M0.4,94.6l-2-0.8l-1,0.6c0.2,0.2,0.4,0.2,0.6,0.2l0.6-0.4l1.2,0.4C-0.2,94.8,0.2,94.8,0.4,94.6L0.4,94.6z
				"/>
			<path fill="#FFFFFF" d="M-1,79.7c0-0.2,0.2-0.6,0.6-0.6s0.6,0.2,0.6,0.6v3.6l0.2-0.4c0-0.2,0.2-0.4,0.2-0.6v-2.6c0-0.6-0.4-1-1-1
				s-1,0.4-1,1v6.8l0.4-1V79.7z"/>
			<path fill="#FFFFFF" d="M-0.4,90.8c0.6,0,1-0.4,1-1V82c-0.2,0.2-0.2,0.4-0.2,0.6L0.2,83v6.6c0,0.2-0.2,0.6-0.6,0.6S-1,90-1,89.6
				V85l-0.4,1v3.6C-1.6,90.4-1,90.8-0.4,90.8z"/>
			<path fill="#FFFFFF" d="M7.6,81.6c-0.6,0-1,0.4-1,1v6.2c0,0.6,0.4,1,1,1s1-0.4,1-1v-6.2C8.8,82.2,8.2,81.6,7.6,81.6z M8.2,88.8
				c0,0.2-0.2,0.6-0.6,0.6c-0.4,0-0.6-0.2-0.6-0.6v-6.2C7,82.4,7.2,82,7.6,82c0.4,0,0.6,0.2,0.6,0.6V88.8z"/>
			<polyline fill="#FFFFFF" points="6.6,74.5 -1.6,71.5 -9.6,76.7 -9.6,101.2 -1.6,96 6.6,99 14.7,93 22.9,99 22.9,80.8 22.5,81.2 
				22.5,98 15.1,92.6 14.5,92.6 6.6,98.4 -1.4,95.6 -1.8,95.6 -9.2,100.2 -9.2,76.9 -1.4,72.1 6.4,75.1 7,74.9 			"/>
			<path fill="#FFFFFF" d="M15.7,76.1c-0.8,0-1.6,0.6-1.6,1.6v7.8v0.4c0,0.8,0.6,1.6,1.6,1.6s1.6-0.6,1.6-1.6v-3.4v-4.8
				C17.3,76.9,16.7,76.1,15.7,76.1z"/>
			<path fill="#FFFFFF" d="M21.9,78.1c-0.8,0-1.6,0.6-1.6,1.6v7.8v0.4c0,0.8,0.6,1.6,1.6,1.6c1,0,1.6-0.6,1.6-1.6v-3.4v-4.8
				C23.5,78.9,22.7,78.1,21.9,78.1z"/>
			<path fill="#FFFFFF" d="M-1.8,72.3c-0.4,0.8,0,1.6,0.8,2l6.4,2.4l0.4,0.2c0.8,0.4,1.6,0,2-0.8s0-1.6-0.8-2l-2.2-0.8l-4.4-1.8
				C-0.6,71.1-1.4,71.5-1.8,72.3z"/>
		</g>
		<g id="_x39__9_" display="inline">
			<g>
				<path fill="#FFFFFF" d="M88.4,67.3l-3.2-3.2c-0.8-0.8-2-0.8-2.6,0L68.3,78.5c-0.2,0.2-0.4,0.6-0.4,1l-4,8.2
					c-0.4,1,0.4,1.8,1.4,1.4l8.2-4c0.4,0,0.6-0.2,1-0.4l14.3-14.3C89,69.1,89,67.9,88.4,67.3z M65.9,87c-0.4,0.2-0.8-0.2-0.6-0.6
					l3-5l2.6,2.6L65.9,87z M72.7,83c-1.2-1.2-3-3-3.2-3.2l10.6-10.6l3.4,3.2L72.7,83z M86.4,69.3l-2,2l-3.2-3.4l2-2
					c0.4-0.4,1-0.4,1.4,0l2,2C86.8,68.3,86.8,68.9,86.4,69.3z"/>
			</g>
		</g>
		<g id="_x39__8_" display="inline">
			<g>
				<path fill="#FFFFFF" d="M144.2,64.1l-3.2-3.2c-0.8-0.8-2-0.8-2.6,0l-12.3,12.3c-0.2,0.2-0.4,0.6-0.4,1l-3,7
					c-0.4,1,0.4,1.8,1.4,1.4l7.2-3c0.4,0,0.6-0.2,1-0.4l12.3-12.3C145,66.1,145,64.9,144.2,64.1z M124.9,80.6
					c-0.4,0.2-0.8-0.2-0.6-0.6l2-4l2.6,2.6L124.9,80.6z M130.5,77.9c-1.2-1.2-3-3-3.2-3.2l8.6-8.4l3.4,3.2L130.5,77.9z M142.2,66.1
					l-2,2l-3.2-3.4l2-2c0.4-0.4,1-0.4,1.4,0l2,2C142.6,65.1,142.6,65.7,142.2,66.1z"/>
			</g>
		</g>
		<g id="_x39__7_" display="inline">
			<g>
				<path fill="#FFFFFF" d="M176.9,74.9l-3.2-3.2c-0.8-0.8-2-0.8-2.6,0L158.7,84c-0.2,0.2-0.4,0.6-0.4,1l-3,7
					c-0.4,1,0.4,1.8,1.4,1.4l7.2-3c0.4,0,0.6-0.2,1-0.4l12.3-12.3C177.5,76.7,177.5,75.5,176.9,74.9z M157.3,91.4
					c-0.4,0.2-0.8-0.2-0.6-0.6l2-4l2.6,2.6L157.3,91.4z M162.9,88.4c-1.2-1.2-3-3-3.2-3.2l8.6-8.4l3.4,3.2L162.9,88.4z M174.9,76.7
					l-2,2l-3.2-3.4l2-2c0.4-0.4,1-0.4,1.4,0l2,2C175.1,75.9,175.1,76.5,174.9,76.7z"/>
			</g>
		</g>
		<g display="inline">
			<path fill="#FFFFFF" d="M60.9,79.1c-0.2,0-0.6,0.2-0.6,0.6v5.8l1-2.2v-3.6C61.5,79.5,61.3,79.1,60.9,79.1z"/>
			<path fill="#FFFFFF" d="M60.5,89.8c0,0.2,0.2,0.6,0.6,0.6c0.4,0,0.6-0.2,0.6-0.6v-6.6l-1.2,2.2V89.8z"/>
			<path fill="#FFFFFF" d="M60.9,78.1c-0.8,0-1.6,0.6-1.6,1.6v7.8l0.4-1v-6.8c0-0.6,0.4-1,1-1c0.6,0,1,0.4,1,1V82
				c0.2-0.2,0.4-0.6,0.4-0.8v-1.6C62.5,78.9,61.9,78.1,60.9,78.1z"/>
			<path fill="#FFFFFF" d="M61.9,89.8c0,0.6-0.4,1-1,1s-1-0.4-1-1v-3.6l-0.4,1v2.6c0,0.8,0.6,1.6,1.6,1.6c1,0,1.6-0.6,1.6-1.6v-8.6
				c-0.2,0.2-0.4,0.4-0.4,0.8v7.8C62.3,89.8,61.9,89.8,61.9,89.8z"/>
			<path fill="#FFFFFF" d="M60.5,79.7c0-0.2,0.2-0.6,0.6-0.6c0.4,0,0.6,0.2,0.6,0.6v3.6l0.2-0.4c0-0.2,0.2-0.4,0.2-0.6v-2.6
				c0-0.6-0.4-1-1-1c-0.6,0-1,0.4-1,1v6.8l0.4-1C60.5,85.4,60.5,79.7,60.5,79.7z"/>
			<path fill="#FFFFFF" d="M60.9,90.8c0.6,0,1-0.4,1-1V82c-0.2,0.2-0.2,0.4-0.2,0.6L61.5,83v6.6c0,0.2-0.2,0.6-0.6,0.6
				s-0.4,0-0.4-0.4v-4.6l-0.4,1v3.6C59.9,90.4,60.3,90.8,60.9,90.8z"/>
			<path fill="#FFFFFF" d="M79.3,84.2c0-0.8-0.6-1.6-1.6-1.6s-1.6,0.6-1.6,1.6V88v0.4c0,0.8,0.6,1.6,1.6,1.6s1.6-0.6,1.6-1.6"/>
			<path fill="#FFFFFF" d="M70.1,87.2c-0.8,0-1.6,0.6-1.6,1.6v1.8V91c0,0.8,0.6,1.6,1.6,1.6c1,0,1.6-0.6,1.6-1.6v-3.4v1.2
				C71.7,87.8,71.1,87.2,70.1,87.2z"/>
			<path fill="#FFFFFF" d="M83.5,78.1c-0.8,0-1.6,0.6-1.6,1.6v3.6v0.2v11.2l-2.4-1.8c0,0-2.4-2.2-3.4-2.2s-2.8,1.8-2.8,1.8l-5.4,4
				c0,0-7.4-3.2-8.2-3c-0.8,0-5.6,3.6-5.6,3.6l0.2-19.3l5.6-3.6l3.4,1.2l2.4,1l0.4,0.2c0.8,0.4,1.6,0,2-0.8c0.4-0.8-0.2-1.4-1-1.8
				l-1-0.4c0,0-4.6-2-4-1.8c0.6,0.2-1.8-0.8-2.2-0.8c-0.8,0-3,1.8-5.4,3c-0.6,0.4-3.4,1.8-3.4,2.4c0,1-0.2,6.8-0.2,7.6
				c0,3.2-0.2,7.8-0.2,12.9c0,1.8,0.4,3.8,1.2,4c1,0.4,1.4,0,3-0.8c2.4-1.4,5-3.4,5-3.4l3.4,1.4c0,0,4,1.8,5,1.8
				c1,0,3.6-2.8,3.6-2.8l4.4-3.4l4.4,3.4c0,0,2.4,2.8,3.8,2.4c1-0.2,0.6-3.4,0.6-3.4v-8.2l0,0v-3.4v-4.8
				C85,78.9,84.2,78.1,83.5,78.1z"/>
		</g>
		<path display="inline" fill="#FFFFFF" d="M129.5,82.6c0-0.6,0.4-1,1-1s1,0.4,1,1v5.6c0,0.6-0.4,1-1,1s-1-0.4-1-1V82.6z"/>
		<path display="inline" fill="#FFFFFF" d="M121.9,87.2c0-0.6,0.4-1,1-1c0.6,0,1,0.4,1,1v3.6c0,0.6-0.4,1-1,1c-0.6,0-1-0.4-1-1V87.2
			z"/>
		<path display="inline" fill="#FFFFFF" d="M114.5,78.3c0-0.6,0.4-1,1-1c0.6,0,0.8,0.4,0.8,1v11.4c0,0.6-0.4,1-1,1s-1-0.4-1-1
			L114.5,78.3L114.5,78.3z"/>
		<path display="inline" fill="#FFFFFF" d="M137.2,78.1c0-0.6-0.4-1-1-1s-1,0.4-1,1V93c0,0.6-0.4,0.8-0.8,0.4l-4-3
			c-0.4-0.4-1.2-0.4-1.6,0l-5.8,4.4c-0.4,0.4-1.2,0.4-1.8,0.2l-5.6-2.2c-0.6-0.2-1.4-0.2-1.8,0.2l-4,2.4c-0.4,0.2-0.8,0-0.8-0.4
			V78.3c0-0.6,0.4-1.2,0.8-1.6l4-2.4c0.4-0.2,1.2-0.4,1.8-0.2l0.4,0.2l0,0l0,0l3.6,1.4l1.2,0.4c0.4,0.2,1,0,1.2-0.6
			c0.2-0.6,0-1-0.6-1.2l-4.8-1.8l-1-0.4c-0.6-0.2-1.4-0.2-1.8,0.2l-5.8,3.6c-0.4,0.2-0.8,1-0.8,1.6v20.3c0,0.6,0.4,0.8,0.8,0.4
			l5.8-3.6c0.4-0.2,1.2-0.4,1.8-0.2l5.6,2.2c0.6,0.2,1.2,0,1.8-0.2l5.8-4.4c0.4-0.4,1.2-0.4,1.6,0l5.8,4.4c0.4,0.4,0.8,0.2,0.8-0.4
			V85.2v-7.2C137,78.1,137.2,78.1,137.2,78.1z"/>
		<g id="_x39__6_" display="inline">
			<g>
				<path fill="#FFFFFF" d="M174.9,149.8v14.9c0,1-1,1.8-2,1.8h-22.3c-1,0-1.8-0.8-1.8-1.8v-22.3c0-1,0.8-2,1.8-2h14.9v-1.8h-14.9
					c-2,0-3.8,1.8-3.8,4v22.3c0,2,1.6,3.8,3.8,3.8h22.3c2,0,4-1.6,4-3.8V150L174.9,149.8L174.9,149.8z"/>
			</g>
		</g>
		<g id="_x39__5_" display="inline">
			<g>
				<path fill="#FFFFFF" d="M140.4,133.8l-3.2-3.2c-0.8-0.8-2-0.8-2.6,0L122.3,143c-0.2,0.2-0.4,0.6-0.4,1l-3,7
					c-0.4,1,0.4,1.8,1.4,1.4l7.2-3c0.4,0,0.6-0.2,1-0.4l12.3-12.3C141.2,135.6,141.2,134.4,140.4,133.8z M121.1,150.4
					c-0.4,0.2-0.8-0.2-0.6-0.6l2-4l2.6,2.6L121.1,150.4z M126.7,147.4c-1.2-1.2-3-3-3.2-3.2l8.6-8.4l3.4,3.2L126.7,147.4z
					 M138.4,135.8l-2,2l-3.2-3.4l2-2c0.4-0.4,1-0.4,1.4,0l2,2C138.8,134.8,138.8,135.4,138.4,135.8z"/>
			</g>
		</g>
		<g id="_x39__4_" display="inline">
			<g>
				<path fill="#FFFFFF" d="M176.9,141.6l-3.2-3.2c-0.8-0.8-2-0.8-2.6,0l-12.3,12.3c-0.2,0.2-0.4,0.6-0.4,1l-3,7
					c-0.4,1,0.4,1.8,1.4,1.4l7.2-3c0.4,0,0.6-0.2,1-0.4l12.3-12.3C177.5,143.4,177.5,142.2,176.9,141.6z M157.3,158.1
					c-0.4,0.2-0.8-0.2-0.6-0.6l2-4l2.6,2.6L157.3,158.1z M162.9,155.1c-1.2-1.2-3-3-3.2-3.2l8.6-8.4l3.4,3.2L162.9,155.1z
					 M174.9,143.4l-2,2l-3.2-3.4l2-2c0.4-0.4,1-0.4,1.4,0l2,2C175.1,142.6,175.1,143.2,174.9,143.4z"/>
			</g>
		</g>
		<path display="inline" fill="#FFFFFF" d="M129.5,149.4c0-0.6,0.4-1,1-1s1,0.4,1,1v5.6c0,0.6-0.4,1-1,1s-1-0.4-1-1V149.4z"/>
		<path display="inline" fill="#FFFFFF" d="M121.9,153.9c0-0.6,0.4-1,1-1c0.6,0,1,0.4,1,1v3.6c0,0.6-0.4,1-1,1c-0.6,0-1-0.4-1-1
			V153.9z"/>
		<path display="inline" fill="#FFFFFF" d="M114.5,143c0-0.6,0.4-1,1-1c0.6,0,1,0.4,1,1v13.5c0,0.6-0.4,1-1,1c-0.6,0-1-0.4-1-1V143z
			"/>
		<path display="inline" fill="#FFFFFF" d="M137.2,144.8c0-0.6-0.4-1-1-1s-1,0.4-1,1v14.9c0,0.6-0.4,0.8-0.8,0.4l-4-3
			c-0.4-0.4-1.2-0.4-1.6,0l-5.8,4.4c-0.4,0.4-1.2,0.4-1.8,0.2l-5.6-2.2c-0.6-0.2-1.4-0.2-1.8,0.2l-4,2.4c-0.4,0.2-0.8,0-0.8-0.4V143
			c0-0.6,0.4-1.2,0.8-1.6l4-2.4c0.4-0.2,1.2-0.4,1.8-0.2l0.4,0.2l0,0l0,0l3.6,1.4l1.2,0.4c0.4,0.2,1,0,1.2-0.6s0-1-0.6-1.2l-4.8-1.8
			l-1-0.4c-0.6-0.2-1.4-0.2-1.8,0.2l-5.8,3.6c-0.4,0.2-0.8,1-0.8,1.6v22.3c0,0.6,0.4,0.8,0.8,0.4l5.8-3.6c0.4-0.2,1.2-0.4,1.8-0.2
			l5.6,2.2c0.6,0.2,1.2,0,1.8-0.2l5.8-4.4c0.4-0.4,1.2-0.4,1.6,0l5.8,4.4c0.4,0.4,0.8,0.2,0.8-0.4V152L137.2,144.8
			C137,144.8,137.2,144.8,137.2,144.8z"/>
	</g>
	
		<g id="svg5327_1_" inkscape:version="0.48.5 r10040" inkscape:export-filename="/home/patrick/Code/leaflet-routing-machine/leaflet.routing.icons.png" sodipodi:docname="leaflet.routing.icons.svg" inkscape:export-ydpi="180" inkscape:export-xdpi="180" xmlns:cc="http://creativecommons.org/ns#" xmlns:sodipodi="http://sodipodi.sourceforge.net/DTD/sodipodi-0.dtd" xmlns:rdf="http://www.w3.org/1999/02/22-rdf-syntax-ns#" xmlns:svg="http://www.w3.org/2000/svg" xmlns:inkscape="http://www.inkscape.org/namespaces/inkscape" xmlns:dc="http://purl.org/dc/elements/1.1/">
		
			<sodipodi:namedview  id="base" inkscape:window-width="1916" inkscape:window-y="22" inkscape:pageshadow="2" inkscape:window-height="1032" fit-margin-right="0" inkscape:window-x="0" inkscape:guide-bbox="true" inkscape:window-maximized="0" inkscape:pageopacity="0" inkscape:snap-nodes="false" inkscape:current-layer="layer1" fit-margin-bottom="0" inkscape:document-units="px" inkscape:snap-bbox="true" bordercolor="#666666" fit-margin-top="0" pagecolor="#ffffff" fit-margin-left="0" borderopacity="1.0" inkscape:zoom="2" inkscape:cx="309.06303" inkscape:cy="10.10151" showgrid="false" showguides="true">
			<inkscape:grid  type="xygrid" id="grid5368" snapvisiblegridlinesonly="true" visible="true" enabled="true" empspacing="5">
				</inkscape:grid>
			<sodipodi:guide  id="guide7926" position="206,16" orientation="0,1"></sodipodi:guide>
			<sodipodi:guide  id="guide7928" position="202,4" orientation="0,1"></sodipodi:guide>
			<sodipodi:guide  id="guide3009" position="280,48" orientation="1,0"></sodipodi:guide>
			<sodipodi:guide  id="guide3011" position="300,43" orientation="1,0"></sodipodi:guide>
		</sodipodi:namedview>
		<g id="_x33__1_">
			<g>
				<path fill="#FFFFFF" d="M114.5,7.6c-8.2,0-14.9,6.8-14.9,14.9s6.8,14.9,14.9,14.9s14.9-6.8,14.9-14.9S122.7,7.6,114.5,7.6z
					 M125.1,15.1c1.4,1.8,2,4.2,2.2,6.4h-7.4c0-1.8-0.2-3.4-0.4-5C121.5,16.1,123.5,15.7,125.1,15.1z M123.9,13.3
					c-1.6,0.6-3,1-4.8,1.2c-0.4-1.8-0.8-3.2-1.6-4.8C120.1,10.3,122.3,11.7,123.9,13.3z M110.9,21.5c0-1.8,0.2-3.2,0.4-4.8
					c1,0,2.2,0.2,3.2,0.2s2.2,0,3.2-0.2c0.2,1.6,0.4,3.2,0.4,4.8H110.9z M118.1,23.3c0,1.8-0.2,3.2-0.4,4.8c-1,0-2.2-0.2-3.2-0.2
					s-2.2,0-3.2,0.2c-0.2-1.6-0.4-3.2-0.4-4.8C110.9,23.3,118.1,23.3,118.1,23.3z M113.5,9.5c0.2,0,0.6,0,0.8,0s0.6,0,0.8,0
					c0.8,1.8,1.6,3.4,2,5.4c-0.8,0-2,0.2-2.8,0.2s-2,0-2.8-0.2C112.1,12.9,112.7,10.9,113.5,9.5z M111.3,9.7c-0.6,1.6-1,3-1.6,4.8
					c-1.8-0.2-3.2-0.6-4.8-1C106.6,11.7,108.7,10.3,111.3,9.7z M103.8,15.1c1.8,0.6,3.6,1,5.6,1.4c-0.2,1.6-0.4,3.2-0.4,5h-7.4
					C101.6,19.1,102.4,16.9,103.8,15.1z M103.8,29.7c-1.4-1.8-2-4.2-2.2-6.4h7.4c0,1.8,0.2,3.4,0.4,5
					C107.4,28.5,105.4,29.1,103.8,29.7z M105,31.5c1.6-0.4,3-0.8,4.8-1c0.4,1.8,0.8,3.2,1.6,4.8C108.7,34.4,106.6,33,105,31.5z
					 M115.3,35.2c-0.2,0-0.6,0-0.8,0s-0.6,0-0.8,0c-0.8-1.8-1.6-3.4-2-5.4c0.8,0,2-0.2,2.8-0.2s2,0,2.8,0.2
					C116.7,31.9,116.1,33.8,115.3,35.2z M117.5,35c0.6-1.6,1-3,1.6-4.8c1.8,0.2,3.2,0.6,4.8,1C122.3,33,120.1,34.4,117.5,35z
					 M125.1,29.7c-1.8-0.6-3.6-1-5.6-1.4c0.2-1.6,0.4-3.2,0.4-5h7.4C127.3,25.7,126.5,27.9,125.1,29.7z"/>
			</g>
		</g>
		<g id="_x31__1_">
			<g>
				<path fill="#FFFFFF" d="M175.3,22.1h-2V10.7c0-2.2-1.8-4.2-4.2-4.2h-12.3c-2.2,0-4.2,1.8-4.2,4.2c0,0,0,10.6,0,11.4h-2
					c-2.2,0-4.2,1.8-4.2,4.2v2c0,2.2,1.8,4.2,4.2,4.2h2.2c0.4,1.8,2,3,4,3h12.3c2,0,3.6-1.4,4-3h2.2c2.2,0,4.2-1.8,4.2-4.2v-2
					C179.4,23.9,177.5,22.1,175.3,22.1z M154.8,10.7c0-1.2,1-2,2-2h12.3c1.2,0,2,1,2,2v11.4h-16.3V10.7z M169.1,33.2h-12.3
					c-1.2,0-2-1-2-2c0-1.2,1-2,2-2h12.3c1.2,0,2,1,2,2C171.3,32.4,170.3,33.2,169.1,33.2z M177.3,28.1c0,1.2-1,2-2,2h-2.2
					c-0.4-1.8-2-3-4-3h-12.3c-2,0-3.6,1.4-4,3h-2.2c-1.2,0-2-1-2-2v-2c0-1.2,1-2,2-2h24.5c1.2,0,2,1,2,2L177.3,28.1L177.3,28.1z"/>
			</g>
		</g>
		<g id="_x32__1_">
			<g>
				<path fill="#FFFFFF" d="M-39.8,33.4c-0.8,0.8-2,0.8-2.8,0L-44,32c-0.8-0.8-0.8-2,0-2.8l9.4-9.4c-1.2-0.2-2.8,0.2-3.8,1.2l-7,7
					c-1.6,1.6-1.6,4,0,5.6L-44,35c1.6,1.6,4,1.6,5.6,0l7-7c1-1,1.4-2.4,1-3.8L-39.8,33.4z M-28.3,18.1c-0.4-0.4-1-0.4-1.4,0
					l-4.8,4.8c-0.4,0.4-0.4,1,0,1.4c0.4,0.4,1,0.4,1.4,0l4.8-4.8C-28.1,19.1-28.1,18.5-28.3,18.1z M-17.7,8.7l-1.4-1.4
					c-1.6-1.6-4-1.6-5.6,0l-6.8,6.8c-1,1.2-1.4,2.6-1,3.8l9.4-9.4c0.6-0.6,2-0.6,2.6,0.2l1.4,1.4c0.8,0.8,0.8,2,0,2.8l-9.4,9.4
					c1.4,0.4,2.8,0,3.8-1l7-7C-16.1,12.7-16.1,10.1-17.7,8.7z"/>
			</g>
		</g>
		<g id="_x39__3_">
			<g>
				<path fill="#FFFFFF" d="M28.9,20.3V33c0,1-1,1.8-2,1.8H5c-1,0-1.8-0.8-1.8-1.8V11.1c0-1,0.8-2,1.8-2h14.7V7.4H5
					c-2,0-3.6,1.8-3.6,3.8V33c0,2,1.6,3.6,3.6,3.6h21.9c2,0,3.8-1.6,3.8-3.6V20.3H28.9z"/>
			</g>
		</g>
		<g id="_x39__1_">
			<g>
				<path fill="#FFFFFF" d="M32.9,10.3l-3.2-3.2c-0.8-0.8-1.8-0.8-2.6,0l-12.3,12c-0.2,0.2-0.4,0.6-0.4,1l-3,7
					c-0.4,1,0.4,1.8,1.2,1.2l7-2.8c0.4,0,0.6-0.2,1-0.4l12.1-12.1C33.5,12.1,33.5,10.9,32.9,10.3z M13.7,26.5
					c-0.4,0.2-0.8-0.2-0.6-0.6l2-3.8l2.6,2.6L13.7,26.5z M19.3,23.7c-1.2-1.2-2.8-2.8-3.2-3.2l8.4-8.2l3.2,3.2L19.3,23.7z
					 M30.9,12.1l-2,2l-3.2-3.2l1.8-1.8c0.4-0.4,1-0.4,1.2,0l2,2C31.3,11.3,31.3,11.9,30.9,12.1z"/>
			</g>
		</g>
	</g>
	<g>
		
			<path fill="none" stroke="#FFFFFF" stroke-width="2.0274" stroke-linecap="round" stroke-linejoin="round" stroke-miterlimit="10" d="
			M60.1,35.2v1.4v-7.2v-0.6V13.9v1.2 M70.9,26.1v6.4v1"/>
		<g id="_x39__13_">
			<g>
				<path fill="#FFFFFF" d="M85.4,8l-3.4-3.4c-0.8-0.8-2-0.8-2.6,0L67.1,16.7c-0.2,0.4-0.4,0.8-0.4,1l-3,6.8c-0.4,1,0.4,1.8,1.4,1.4
					l7.4-3c0.4,0,0.6-0.2,1-0.4l12.3-12.1C86,9.5,86,8.5,85.4,8z M66.3,24.1c-0.4,0.2-0.8-0.2-0.6-0.6l2-4l2.6,2.6L66.3,24.1z
					 M71.9,21.3c-1.2-1.2-3-3-3.4-3.4l8.4-8.2l3.4,3.2L71.9,21.3z M83.5,9.7l-2,2l-3-3.2l2-2c0.2-0.4,0.8-0.4,1.2,0l2,2
					C83.8,8.9,83.8,9.3,83.5,9.7z"/>
			</g>
		</g>
		<path fill="none" stroke="#FFFFFF" stroke-width="2.0274" stroke-linecap="round" stroke-miterlimit="10" d="M83.3,16.3v18.5
			c0,1.4-0.6,2.2-1.8,2.2c-0.2,0-0.4,0-0.6,0l-9.8-2.2h-0.2l-11,2.4l-10.2-2.4c-0.8-0.2-2-0.8-2-2.2V13.5c0-1.4,0.6-2.2,1.8-2.2
			c0.2,0,0.4,0,0.6,0l9.8,2.2h0.2l9.4-2.2"/>
	</g>
	<path fill="none" stroke="#FFFFFF" stroke-width="1.7925" stroke-linecap="round" stroke-miterlimit="10" d="M10.6,8.3h9.4"/>
	<path fill="none" stroke="#FFFFFF" stroke-width="1.7925" stroke-linecap="round" stroke-miterlimit="10" d="M29.7,28.1v-9.4"/>
</g>
</svg>
