<?xml version="1.0" encoding="utf-8"?>
<!-- Generator: Adobe Illustrator 19.0.0, SVG Export Plug-In . SVG Version: 6.00 Build 0)  -->
<svg version="1.1"
	 id="svg5327" xmlns:cc="http://creativecommons.org/ns#" xmlns:rdf="http://www.w3.org/1999/02/22-rdf-syntax-ns#" xmlns:sodipodi="http://sodipodi.sourceforge.net/DTD/sodipodi-0.dtd" xmlns:dc="http://purl.org/dc/elements/1.1/" xmlns:svg="http://www.w3.org/2000/svg" xmlns:inkscape="http://www.inkscape.org/namespaces/inkscape" inkscape:version="0.48.5 r10040" inkscape:export-ydpi="180" inkscape:export-filename="/home/patrick/Code/leaflet-routing-machine/leaflet.routing.icons.png" sodipodi:docname="leaflet.routing.icons.svg" inkscape:export-xdpi="180"
	 xmlns="http://www.w3.org/2000/svg" xmlns:xlink="http://www.w3.org/1999/xlink" x="0px" y="0px" viewBox="-185 387 240 20"
	 style="enable-background:new -185 387 240 20;" xml:space="preserve">
<style type="text/css">
	.st0{fill:#5A77A2;}
	.st1{opacity:0.5;}
	.st2{fill:#5A77A2;fill-opacity:0;}
	.st3{font-family:'ArialMT';}
	.st4{font-size:16.7411px;}
	.st5{font-size:16.8098px;}
	.st6{font-size:6.4606px;}
	.st7{fill:#41007E;}
	.st8{fill:#41007E;fill-opacity:0;}
	.st9{enable-background:new    ;}
	.st10{fill:#022BB1;}
	.st11{fill:#022BB1;fill-opacity:0;}
</style>
<sodipodi:namedview  id="base" inkscape:cy="10.10151" inkscape:zoom="2" fit-margin-top="0" fit-margin-left="0" showguides="true" borderopacity="1.0" bordercolor="#666666" pagecolor="#ffffff" showgrid="false" inkscape:cx="309.06303" inkscape:guide-bbox="true" inkscape:snap-nodes="false" inkscape:pageshadow="2" fit-margin-bottom="0" inkscape:document-units="px" inkscape:window-x="0" inkscape:pageopacity="0" inkscape:snap-bbox="true" inkscape:window-maximized="0" inkscape:current-layer="layer1" inkscape:window-y="22" fit-margin-right="0" inkscape:window-width="1916" inkscape:window-height="1032">
	<inkscape:grid  enabled="true" empspacing="5" visible="true" id="grid5368" snapvisiblegridlinesonly="true" type="xygrid">
		</inkscape:grid>
	<sodipodi:guide  orientation="0,1" position="206,16" id="guide7926"></sodipodi:guide>
	<sodipodi:guide  orientation="0,1" position="202,4" id="guide7928"></sodipodi:guide>
	<sodipodi:guide  orientation="1,0" position="280,48" id="guide3009"></sodipodi:guide>
	<sodipodi:guide  orientation="1,0" position="300,43" id="guide3011"></sodipodi:guide>
</sodipodi:namedview>
<g id="layer1" transform="translate(-3200,-992.36218)" inkscape:groupmode="layer" inkscape:label="Layer 1">
	<path id="path6002-6-5-5" inkscape:connector-curvature="0" sodipodi:nodetypes="cccccccc" class="st0" d="M3030.5,1388.4l-5.5-5.5
		l-5.5,5.5h4.5v7h2v-7H3030.5z"/>
	<path id="rect4998" inkscape:connector-curvature="0" class="st0" d="M3104,1383.4c-1.7,0-3.1,0.6-3.9,1.6c-0.8,1-1.1,2.2-1.1,3.4
		v6h2v-6c0-0.8,0.2-1.6,0.7-2.1c0.4-0.5,1.1-0.9,2.3-0.9s1.9,0.4,2.3,0.9c0.4,0.5,0.7,1.3,0.7,2.1v2h-4.5l5.5,5.5l5.5-5.5h-4.5v-2
		c0-1.2-0.3-2.4-1.1-3.4C3107.1,1384,3105.7,1383.4,3104,1383.4z"/>
	<path id="path4705" inkscape:connector-curvature="0" sodipodi:nodetypes="cccccccccc" class="st0" d="M3081.5,1383.4l3,3l-3.5,3.5
		v5.4h2v-4.6l2.9-3l3.1,3.1v-7.5L3081.5,1383.4L3081.5,1383.4z"/>
	<path id="path4878" inkscape:connector-curvature="0" sodipodi:nodetypes="ccccccccccc" class="st0" d="M3066,1382.9v4.5h-5l-1,1v6
		h2v-5h4v4.5l5.5-5.5L3066,1382.9z"/>
	<path id="path4886" inkscape:connector-curvature="0" class="st0" d="M3041.4,1383.4l-1.4,1v8h2v-5.6l4.6,4.5l-3.1,3.1h7.5v-7.5
		l-3,3L3041.4,1383.4L3041.4,1383.4z"/>
	<path id="path4941" inkscape:connector-curvature="0" sodipodi:nodetypes="cccccccccc" class="st0" d="M3161,1383.4v7.5l3.1-3.1
		l2.9,3v4.6h2v-5.4l-3.5-3.5l3-3L3161,1383.4L3161,1383.4z"/>
	<path id="path4945" inkscape:connector-curvature="0" sodipodi:nodetypes="ccccccccccc" class="st0" d="M3144,1382.9v4.5h5l1,1v6
		h-2v-5h-4v4.5l-5.5-5.5L3144,1382.9z"/>
	<path id="path4947" inkscape:connector-curvature="0" class="st0" d="M3128.6,1383.4l-6.5,6.5l-3-3v7.5h7.5l-3.1-3.1l4.6-4.5v5.6h2
		v-8L3128.6,1383.4L3128.6,1383.4z"/>
	<path id="path5026" inkscape:connector-curvature="0" sodipodi:nodetypes="scccsccscccccss" class="st0" d="M3205,1382.4
		c-1.5,0-3.1,0.6-4.2,1.7c-2.3,2.3-2.3,6.2,0,8.5l1.4-1.4c-1.6-1.6-1.6-4.1,0-5.6c1.6-1.6,4.1-1.6,5.6,0c1.6,1.6,1.6,4.1,0,5.6
		c-0.8,0.8-1.8,1.2-2.8,1.2h-1v4h2v-2.1c1.2-0.2,2.4-0.8,3.2-1.7c2.3-2.3,2.3-6.2,0-8.5C3208.1,1382.9,3206.5,1382.4,3205,1382.4z"
		/>
	<g id="g5936" transform="matrix(1,0,0,-1,1,2004.7244)" class="st1">
	</g>
	<g id="g5932" transform="translate(1,-2)">
	</g>
	<g id="g6038" transform="matrix(1,0,0,-1,1,2024.7244)">
	</g>
	
		<g id="a-18" transform="translate(3360.5,-23.000003)" inkscape:export-ydpi="90" inkscape:export-xdpi="90" inkscape:label="#g6597">
		<rect id="rect6083" x="-185" y="1403.4" class="st2" width="18" height="18"/>
		<text transform="matrix(1 0 0 1 -181.2793 1418.3622)" class="st0 st3 st4">A</text>
	</g>
	<g id="b-18" transform="translate(3401,-23.00002)" inkscape:export-ydpi="90" inkscape:export-xdpi="90" inkscape:label="#g6602">
		<rect id="rect6604" x="-185" y="1403.4" class="st2" width="18" height="18"/>
		<text transform="matrix(1 0 0 1 -181.5103 1418.3622)" class="st0 st3 st5">B</text>
	</g>
	<rect id="rect3033" x="3236" y="1380.4" class="st2" width="18" height="18"/>
	<text transform="matrix(1 0 0 1 3237.9858 1395.3622)" class="st0 st3 st5">V</text>
	<text transform="matrix(0.9066 0 0 1 3247.8315 1395.2704)" class="st0 st3 st6">ia</text>
</g>
<g id="layer1_1_" transform="translate(-3200,-992.36218)" inkscape:groupmode="layer" inkscape:label="Layer 1">
	<path id="path6002-6-5-5_1_" inkscape:connector-curvature="0" sodipodi:nodetypes="cccccccc" class="st7" d="M3030.5,1444.4
		l-5.5-5.5l-5.5,5.5h4.5v7h2v-7H3030.5z"/>
	<path id="rect4998_1_" inkscape:connector-curvature="0" class="st7" d="M3104,1439.4c-1.7,0-3.1,0.6-3.9,1.6
		c-0.8,1-1.1,2.2-1.1,3.4v6h2v-6c0-0.8,0.2-1.6,0.7-2.1c0.4-0.5,1.1-0.9,2.3-0.9s1.9,0.4,2.3,0.9c0.4,0.5,0.7,1.3,0.7,2.1v2h-4.5
		l5.5,5.5l5.5-5.5h-4.5v-2c0-1.2-0.3-2.4-1.1-3.4C3107.1,1440,3105.7,1439.4,3104,1439.4z"/>
	<path id="path4705_1_" inkscape:connector-curvature="0" sodipodi:nodetypes="cccccccccc" class="st7" d="M3081.5,1439.4l3,3
		l-3.5,3.5v5.4h2v-4.6l2.9-3l3.1,3.1v-7.5L3081.5,1439.4L3081.5,1439.4z"/>
	<path id="path4878_1_" inkscape:connector-curvature="0" sodipodi:nodetypes="ccccccccccc" class="st7" d="M3066,1438.9v4.5h-5
		l-1,1v6h2v-5h4v4.5l5.5-5.5L3066,1438.9z"/>
	<path id="path4886_1_" inkscape:connector-curvature="0" class="st7" d="M3041.4,1439.4l-1.4,1v8h2v-5.6l4.6,4.5l-3.1,3.1h7.5v-7.5
		l-3,3L3041.4,1439.4L3041.4,1439.4z"/>
	<path id="path4941_1_" inkscape:connector-curvature="0" sodipodi:nodetypes="cccccccccc" class="st7" d="M3161,1439.4v7.5l3.1-3.1
		l2.9,3v4.6h2v-5.4l-3.5-3.5l3-3L3161,1439.4L3161,1439.4z"/>
	<path id="path4945_1_" inkscape:connector-curvature="0" sodipodi:nodetypes="ccccccccccc" class="st7" d="M3144,1438.9v4.5h5l1,1
		v6h-2v-5h-4v4.5l-5.5-5.5L3144,1438.9z"/>
	<path id="path4947_1_" inkscape:connector-curvature="0" class="st7" d="M3128.6,1439.4l-6.5,6.5l-3-3v7.5h7.5l-3.1-3.1l4.6-4.5
		v5.6h2v-8L3128.6,1439.4L3128.6,1439.4z"/>
	<path id="path5026_1_" inkscape:connector-curvature="0" sodipodi:nodetypes="scccsccscccccss" class="st7" d="M3205,1438.4
		c-1.5,0-3.1,0.6-4.2,1.7c-2.3,2.3-2.3,6.2,0,8.5l1.4-1.4c-1.6-1.6-1.6-4.1,0-5.6s4.1-1.6,5.6,0c1.6,1.6,1.6,4.1,0,5.6
		c-0.8,0.8-1.8,1.2-2.8,1.2h-1v4h2v-2.1c1.2-0.2,2.4-0.8,3.2-1.7c2.3-2.3,2.3-6.2,0-8.5C3208.1,1438.9,3206.5,1438.4,3205,1438.4z"
		/>
	<g id="g5936_1_" transform="matrix(1,0,0,-1,1,2004.7244)" class="st1">
	</g>
	<g id="g5932_1_" transform="translate(1,-2)">
	</g>
	<g id="g6038_1_" transform="matrix(1,0,0,-1,1,2024.7244)">
	</g>
	
		<g id="a-18_1_" transform="translate(3360.5,-23.000003)" inkscape:export-ydpi="90" inkscape:export-xdpi="90" inkscape:label="#g6597">
		<rect id="rect6083_1_" x="-185" y="1459.4" class="st8" width="18" height="18"/>
		<text transform="matrix(1 0 0 1 -181.2793 1474.3622)" class="st7 st3 st4">A</text>
	</g>
	
		<g id="b-18_1_" transform="translate(3401,-23.00002)" inkscape:export-ydpi="90" inkscape:export-xdpi="90" inkscape:label="#g6602">
		<rect id="rect6604_1_" x="-185" y="1459.4" class="st8" width="18" height="18"/>
		<text transform="matrix(1 0 0 1 -181.5103 1474.3622)" class="st7 st3 st5">B</text>
	</g>
	<rect id="rect3033_1_" x="3236" y="1436.4" class="st8" width="18" height="18"/>
	<text transform="matrix(1 0 0 1 3237.9858 1451.3622)" class="st7 st3 st5">V</text>
	<text transform="matrix(0.9066 0 0 1 3247.8315 1451.2704)" class="st7 st3 st6">ia</text>
</g>
<g id="layer1_2_" transform="translate(-3200,-992.36218)" inkscape:groupmode="layer" inkscape:label="Layer 1">
	<path id="path6002-6-5-5_2_" inkscape:connector-curvature="0" sodipodi:nodetypes="cccccccc" class="st10" d="M3030.5,1510.4
		l-5.5-5.5l-5.5,5.5h4.5v7h2v-7H3030.5z"/>
	<path id="rect4998_2_" inkscape:connector-curvature="0" class="st10" d="M3104,1505.4c-1.7,0-3.1,0.6-3.9,1.6
		c-0.8,1-1.1,2.2-1.1,3.4v6h2v-6c0-0.8,0.2-1.6,0.7-2.1c0.4-0.5,1.1-0.9,2.3-0.9s1.9,0.4,2.3,0.9c0.4,0.5,0.7,1.3,0.7,2.1v2h-4.5
		l5.5,5.5l5.5-5.5h-4.5v-2c0-1.2-0.3-2.4-1.1-3.4C3107.1,1506,3105.7,1505.4,3104,1505.4z"/>
	<path id="path4705_2_" inkscape:connector-curvature="0" sodipodi:nodetypes="cccccccccc" class="st10" d="M3081.5,1505.4l3,3
		l-3.5,3.5v5.4h2v-4.6l2.9-3l3.1,3.1v-7.5L3081.5,1505.4L3081.5,1505.4z"/>
	<path id="path4878_2_" inkscape:connector-curvature="0" sodipodi:nodetypes="ccccccccccc" class="st10" d="M3066,1504.9v4.5h-5
		l-1,1v6h2v-5h4v4.5l5.5-5.5L3066,1504.9z"/>
	<path id="path4886_2_" inkscape:connector-curvature="0" class="st10" d="M3041.4,1505.4l-1.4,1v8h2v-5.6l4.6,4.5l-3.1,3.1h7.5
		v-7.5l-3,3L3041.4,1505.4L3041.4,1505.4z"/>
	<path id="path4941_2_" inkscape:connector-curvature="0" sodipodi:nodetypes="cccccccccc" class="st10" d="M3161,1505.4v7.5
		l3.1-3.1l2.9,3v4.6h2v-5.4l-3.5-3.5l3-3L3161,1505.4L3161,1505.4z"/>
	<path id="path4945_2_" inkscape:connector-curvature="0" sodipodi:nodetypes="ccccccccccc" class="st10" d="M3144,1504.9v4.5h5l1,1
		v6h-2v-5h-4v4.5l-5.5-5.5L3144,1504.9z"/>
	<path id="path4947_2_" inkscape:connector-curvature="0" class="st10" d="M3128.6,1505.4l-6.5,6.5l-3-3v7.5h7.5l-3.1-3.1l4.6-4.5
		v5.6h2v-8L3128.6,1505.4L3128.6,1505.4z"/>
	<path id="path5026_2_" inkscape:connector-curvature="0" sodipodi:nodetypes="scccsccscccccss" class="st10" d="M3205,1504.4
		c-1.5,0-3.1,0.6-4.2,1.7c-2.3,2.3-2.3,6.2,0,8.5l1.4-1.4c-1.6-1.6-1.6-4.1,0-5.6s4.1-1.6,5.6,0c1.6,1.6,1.6,4.1,0,5.6
		c-0.8,0.8-1.8,1.2-2.8,1.2h-1v4h2v-2.1c1.2-0.2,2.4-0.8,3.2-1.7c2.3-2.3,2.3-6.2,0-8.5C3208.1,1504.9,3206.5,1504.4,3205,1504.4z"
		/>
	<g id="g5936_2_" transform="matrix(1,0,0,-1,1,2004.7244)" class="st1">
	</g>
	<g id="g5932_2_" transform="translate(1,-2)">
	</g>
	<g id="g6038_2_" transform="matrix(1,0,0,-1,1,2024.7244)">
	</g>
	
		<g id="a-18_2_" transform="translate(3360.5,-23.000003)" inkscape:export-ydpi="90" inkscape:export-xdpi="90" inkscape:label="#g6597">
		<rect id="rect6083_4_" x="-185" y="1525.4" class="st11" width="18" height="18"/>
		<text transform="matrix(1 0 0 1 -181.2793 1540.3622)" class="st10 st3 st4">A</text>
	</g>
	
		<g id="b-18_2_" transform="translate(3401,-23.00002)" inkscape:export-ydpi="90" inkscape:export-xdpi="90" inkscape:label="#g6602">
		<rect id="rect6604_4_" x="-185" y="1525.4" class="st11" width="18" height="18"/>
		<text transform="matrix(1 0 0 1 -181.5103 1540.3622)" class="st10 st3 st5">B</text>
	</g>
	<rect id="rect3033_4_" x="3236" y="1502.4" class="st11" width="18" height="18"/>
	<text transform="matrix(1 0 0 1 3237.9858 1517.3622)" class="st10 st3 st5">V</text>
	<text transform="matrix(0.9066 0 0 1 3247.8315 1517.2704)" class="st10 st3 st6">ia</text>
</g>
<rect x="-354" y="181" class="st7" width="68" height="68"/>
<rect x="-354" y="273" class="st10" width="68" height="68"/>
<rect x="-380" y="373" class="st0" width="68" height="68"/>
</svg>
