<?xml version="1.0" encoding="utf-8"?>
<!-- Generator: Adobe Illustrator 17.1.0, SVG Export Plug-In . SVG Version: 6.00 Build 0)  -->
<!DOCTYPE svg PUBLIC "-//W3C//DTD SVG 1.1//EN" "http://www.w3.org/Graphics/SVG/1.1/DTD/svg11.dtd">
<svg version="1.1" id="Layer_1" xmlns="http://www.w3.org/2000/svg" xmlns:xlink="http://www.w3.org/1999/xlink" x="0px" y="0px"
	 width="1200px" height="343.3px" viewBox="0 0 1200 343.3" enable-background="new 0 0 1200 343.3" xml:space="preserve">
<linearGradient id="SVGID_1_" gradientUnits="userSpaceOnUse" x1="9.8026" y1="173.6609" x2="1181.405" y2="173.6609">
	<stop  offset="0" style="stop-color:#005492"/>
	<stop  offset="1" style="stop-color:#57297A"/>
</linearGradient>
<path fill="url(#SVGID_1_)" d="M1176,25.6c-3.7-3.8-8.3-5.8-13.8-5.8l-73.6,0.2c-9.1-0.5-15.4,3.4-19,11.7l-30.5,84.1l-21.7-60
	l-8.8-24.1c-3.3-8.1-9.7-12-19.2-11.9h-96.1c-5.3,0-9.8,1.9-13.6,5.6c-3.7,3.8-5.6,8.4-5.6,13.6v269.1c0,5.3,1.9,9.7,5.8,13.5
	c3.7,3.8,8.2,5.8,13.5,5.8c5.3,0,9.8-1.9,13.6-5.6c3.7-3.8,5.6-8.4,5.6-13.6V148.8l60.2,166.3c3.2,7.8,9.2,11.7,17.9,11.7
	c8.8,0,14.9-3.9,18.1-11.7l30.5-84l26.3,72.9l0.2-0.2l4.1,11.2c1.3,3.6,3.8,6.5,7.7,8.8c3.6,2.3,7.4,3.5,11.3,3.5h73.6
	c5.5,0,10.1-1.9,13.8-5.8c3.6-3.7,5.4-8.2,5.4-13.5V39.1C1181.4,33.8,1179.6,29.4,1176,25.6z M990.5,249.9L921.2,58.3h55.4l8.3,23
	l0,0l33.3,92.3L990.5,249.9z M1143,289h-41.3l-3.6-9.9l0,0l0-0.1l-12.4-34.4c0-0.1-0.1-0.1-0.1-0.2l-25.7-71l41.7-115h41.5V289z
	 M163.6,96.8c-21.3,0-39.4,7.5-54.4,22.5s-22.5,33.1-22.5,54.4c0,21.3,7.5,39.4,22.5,54.4c15,15,33.1,22.5,54.4,22.5
	c21.3,0,39.4-7.5,54.4-22.5c15-15,22.5-33.1,22.5-54.4c0-21.3-7.5-39.4-22.5-54.4S184.8,96.8,163.6,96.8z M190.8,200.8
	c-7.5,7.5-16.6,11.2-27.2,11.2c-10.6,0-19.7-3.7-27.2-11.2c-7.5-7.5-11.2-16.6-11.2-27.2c0-10.6,3.7-19.7,11.2-27.2
	c7.5-7.5,16.6-11.2,27.2-11.2c10.6,0,19.7,3.7,27.2,11.2c7.5,7.5,11.2,16.6,11.2,27.2C202,184.3,198.3,193.3,190.8,200.8z
	 M163.6,19.9c-42.4,0-78.6,15-108.7,45.1C24.8,95,9.8,131.2,9.8,173.6c0,42.4,15,78.6,45.1,108.7c30,30.1,66.3,45.1,108.7,45.1
	c42.4,0,78.6-15,108.7-45.1c30.1-30,45.1-66.3,45.1-108.7c0-42.4-15-78.6-45.1-108.7C242.2,34.9,206,19.9,163.6,19.9z M245.2,255.2
	c-22.5,22.5-49.7,33.7-81.6,33.7s-59.1-11.2-81.6-33.7c-22.5-22.5-33.7-49.7-33.7-81.6S59.5,114.5,82,92
	c22.5-22.5,49.7-33.7,81.6-33.7s59.1,11.2,81.6,33.7c22.5,22.5,33.7,49.7,33.7,81.6S267.7,232.7,245.2,255.2z M367.5,173.4
	c-12.8-17-19.2-36.2-19.2-57.5c0-25.8,10.3-48.4,30.9-68c19.7-18.7,41.4-28.1,65-28.1c19.7,0,36.8,4.6,51.3,13.6
	c11,6.9,22.7,18.2,35,33.8c4.5,5.6,6.7,10.9,6.7,15.8c0,5.4-1.9,9.9-5.6,13.6c-3.7,3.7-8.3,5.6-13.6,5.6c-6.5,0-11.7-2.7-15.6-8.1
	c-18.3-24-37.7-35.9-58.2-35.9c-15.9,0-29.4,5.6-40.6,16.9c-11.3,11.3-16.9,24.9-16.9,40.7c0,11.7,3.2,22.3,9.6,31.9l61.5,69.8
	c3.7,3.8,5.6,8.4,5.6,13.6c0,5.3-1.9,9.8-5.6,13.6c-3.7,3.7-8.3,5.6-13.6,5.6c-5.6,0-10.4-2.2-14.2-6.5L367.5,173.4z M781.7,203.2
	l39.4,97.3c2,5,2,10,0,15c-2.2,5-5.8,8.5-10.8,10.6c-5,1.9-10,1.9-15-0.2c-5-2.2-8.5-5.8-10.6-10.8l-46.9-114.9
	c-1.8-4.6-1.9-9.3-0.2-14c1.7-4.7,4.6-8.3,8.8-10.6l1.5-0.8l0.8-0.2l0.6-0.2l0.2-0.2l1-0.4h0.2h0.4l0.2-0.2h0.2
	c6.5-1.9,11.1-3.6,13.8-5c19-10.1,28.4-27.7,28.4-52.7c0-14.3-5.5-27.4-16.5-39C766,65,752.8,58.8,737.5,58.3H620.9v249.9
	c0,5.3-1.9,9.8-5.6,13.6c-3.8,3.7-8.4,5.6-13.6,5.6c-5.3,0-9.7-1.9-13.5-5.8c-3.8-3.7-5.8-8.2-5.8-13.5V39.1c0-5.1,1.8-9.6,5.4-13.5
	c3.7-3.8,8.3-5.8,13.8-5.8h134.5c26.1,0,48.8,9.8,68,29.4c18.7,19.2,28.1,41.5,28.1,66.7c0,19.6-4.6,37.2-13.8,52.7
	C809.5,183.8,797.2,195.3,781.7,203.2z M521.1,173.8c12.8,14.9,19.2,34,19.2,57.5c0,25.8-10.3,48.4-30.9,67.9
	c-19.7,18.8-41.5,28.3-65.2,28.3c-19.6,0-36.7-4.5-51.1-13.6c-11-6.9-22.7-18.2-35-33.8c-4.5-5.6-6.7-10.9-6.7-15.8
	c0-5.4,1.9-9.9,5.6-13.6c3.7-3.7,8.3-5.6,13.6-5.6c6.5,0,11.7,2.7,15.6,8.1c18.3,24,37.7,35.9,58,35.9c16,0,29.6-5.6,40.7-16.9
	c11.3-11.3,16.9-24.9,16.9-40.7c0-13.2-3.2-23.8-9.6-31.9l-61.5-69.8c-3.7-3.8-5.6-8.4-5.6-13.6c0-5.3,1.9-9.8,5.6-13.6
	c3.7-3.7,8.2-5.6,13.5-5.6c5.8,0,10.6,2.2,14.4,6.5L521.1,173.8z M749.8,129.6c-3.8,3.7-8.4,5.6-13.6,5.6h-38.4v173
	c0,5.3-1.9,9.7-5.8,13.5c-3.7,3.8-8.2,5.8-13.5,5.8c-5.3,0-9.8-1.9-13.6-5.6c-3.7-3.8-5.6-8.4-5.6-13.6V116.9c0-6,1.7-10.9,5.2-14.6
	c3.6-3.7,8.3-5.6,14-5.6h57.7c5.3,0,9.7,1.9,13.5,5.8c3.8,3.7,5.8,8.2,5.8,13.5C755.4,121.2,753.5,125.8,749.8,129.6z"/>
<rect x="489.9" y="-318.1" fill="#005492" width="31" height="31"/>
<rect x="526.9" y="-318.1" fill="#9A7FAF" width="31" height="31"/>
<rect x="452.9" y="-318.1" fill="#00BBDE" width="31" height="31"/>
<rect x="564.9" y="-318.1" fill="#57297A" width="31" height="31"/>
<rect x="604.9" y="-318.1" fill="#E0D013" width="31" height="31"/>
<rect x="489.9" y="-270.1" fill="#003F6E" width="31" height="31"/>
<rect x="564.9" y="-270.1" fill="#2C153D" width="31" height="31"/>
<rect x="604.9" y="-270.1" fill="#E0D013" width="31" height="31"/>
<rect x="489.9" y="-221.1" fill="#002F53" width="31" height="31"/>
<rect x="376.9" y="-119.1" fill="#002F53" width="31" height="31"/>
<rect x="564.9" y="-221.1" fill="#21102E" width="31" height="31"/>
<rect x="604.9" y="-221.1" fill="#E0D013" width="31" height="31"/>
</svg>
