<?xml version="1.0" encoding="utf-8"?>
<!-- Generator: Adobe Illustrator 15.1.0, SVG Export Plug-In . SVG Version: 6.00 Build 0)  -->
<!DOCTYPE svg PUBLIC "-//W3C//DTD SVG 1.1//EN" "http://www.w3.org/Graphics/SVG/1.1/DTD/svg11.dtd">
<svg version="1.1" id="Layer_1" xmlns="http://www.w3.org/2000/svg" xmlns:xlink="http://www.w3.org/1999/xlink" x="0px" y="0px"
	 width="180px" height="20px" viewBox="0 0 180 20" enable-background="new 0 0 180 20" xml:space="preserve">
<rect x="9" y="5" fill="#5A77A2" width="2" height="15"/>
<polyline fill="#5A77A2" points="5,5 10,0 15,5 "/>
<polyline fill="#5A77A2" points="29,20 29,11 25,11 25,9 31,9 31,20 "/>
<polyline fill="#5A77A2" points="20,10 25,5 25,15 "/>
<rect x="49" y="9" fill="#5A77A2" width="2" height="11"/>
<polyline fill="#5A77A2" points="49,9 40,18.864 42.001,20 51,9 "/>
<polyline fill="#5A77A2" points="40,12.959 47,20 40,20 "/>
<rect x="69" y="9" fill="#5A77A2" width="2" height="11"/>
<polyline fill="#5A77A2" points="61.958,0.083 71,9 69,9 60,0.864 "/>
<polyline fill="#5A77A2" points="60,7 60,0 67,0 "/>
<polyline fill="#5A77A2" points="90,15 85,20 80,15 "/>
<polyline fill="#5A77A2" points="86,9 86,15 84,15 84,9.025 87.5,5 91,9.025 91,20 89,20 89,9.025 87.5,7.435 "/>
<polyline fill="#5A77A2" points="110,15 115,20 120,15 "/>
<polyline fill="#5A77A2" points="114,9 114,15 116,15 116,9.025 112.5,5 109,9.025 109,20 111,20 111,9.025 112.5,7.435 "/>
<rect x="129" y="9" fill="#5A77A2" width="2" height="11"/>
<polyline fill="#5A77A2" points="138.042,0 129,9 131,9 140,0.865 "/>
<polyline fill="#5A77A2" points="140,7 140,0 133,0 "/>
<rect x="149" y="9" fill="#5A77A2" width="2" height="11"/>
<polyline fill="#5A77A2" points="151,9 160,18.908 157.959,20 149,9 "/>
<polyline fill="#5A77A2" points="160,12.959 153,20 160,20 "/>
<polyline fill="#5A77A2" points="171,20 171,11 175,11 175,9 169,9 169,20 "/>
<polyline fill="#5A77A2" points="180,10 175,5 175,15 "/>
</svg>
